<svg xmlns="http://www.w3.org/2000/svg" xmlns:xlink="http://www.w3.org/1999/xlink" viewBox="0 0 23 17"><defs><style>.cls-1,.cls-2,.cls-4,.cls-6{fill:none;}.cls-2,.cls-5{clip-path:url(#clip-path);}.cls-2{clip-rule:evenodd;}.cls-3{clip-path:url(#clip-path-2);}.cls-4,.cls-6{stroke:#000;stroke-miterlimit:10;}.cls-4{stroke-width:2px;}</style><clipPath id="clip-path"><rect class="cls-1" x="1" y="1" width="21" height="15"/></clipPath><clipPath id="clip-path-2"><path class="cls-2" d="M5,1H18a4,4,0,0,1,4,4v7a4,4,0,0,1-4,4H5a4,4,0,0,1-4-4V5A4,4,0,0,1,5,1Z"/></clipPath></defs><title>email_icon</title><g id="Слой_2" data-name="Слой 2"><g id="Слой_1-2" data-name="Слой 1"><g class="cls-3"><path class="cls-4" d="M5,1H18a4,4,0,0,1,4,4v7a4,4,0,0,1-4,4H5a4,4,0,0,1-4-4V5A4,4,0,0,1,5,1Z"/></g><g class="cls-5"><path class="cls-6" d="M3.89,3.15l7.74,6.73,7.68-6.73M4,13.47,9.19,8"/><line class="cls-6" x1="19.19" y1="13.47" x2="14" y2="8"/></g></g></g></svg>