<?xml version="1.0" encoding="utf-8"?>
<!-- Generator: Adobe Illustrator 21.0.0, SVG Export Plug-In . SVG Version: 6.00 Build 0)  -->
<svg version="1.1" id="Слой_1" xmlns="http://www.w3.org/2000/svg" xmlns:xlink="http://www.w3.org/1999/xlink" x="0px" y="0px"
	 viewBox="0 0 88 50" style="enable-background:new 0 0 88 50;" xml:space="preserve">
<style type="text/css">
	.st0{fill:url(#Shape_6_);}
	.st1{fill:#FFFFFF;}
</style>
<title>logo</title>
<desc>Created with Sketch.</desc>
<g id="Voiso">
	<g id="Voiso_desktop" transform="translate(-185.000000, -60.000000)">
		<g id="logo" transform="translate(185.000000, 60.000000)">

				<linearGradient id="Shape_6_" gradientUnits="userSpaceOnUse" x1="-258.0341" y1="414.1" x2="-257.004" y2="414.1" gradientTransform="matrix(88 0 0 -50 22707 20730)">
				<stop  offset="4.000000e-02" style="stop-color:#DA2A32"/>
				<stop  offset="0.11" style="stop-color:#D52A37"/>
				<stop  offset="0.2" style="stop-color:#C52A45"/>
				<stop  offset="0.29" style="stop-color:#AC2A5D"/>
				<stop  offset="0.39" style="stop-color:#892B7F"/>
				<stop  offset="0.5" style="stop-color:#5C2BA9"/>
				<stop  offset="0.55" style="stop-color:#442BC0"/>
				<stop  offset="0.84" style="stop-color:#6485F6"/>
				<stop  offset="1" style="stop-color:#6EABFB"/>
			</linearGradient>
			<path id="Shape" class="st0" d="M0.6,24.3C14.3,18.9,20.9-1.1,29.9,0c8.9,1.1,16.6,13.4,25,13.2c5-0.1,7.2-7.4,11.8-7.4
				c3.4,0,5.4,2.3,9.5,7.8c3.9,5.3,7.9,9,11.4,10.5h0c0.3,0.1,0.5,0.4,0.5,0.7c0,0.3-0.2,0.6-0.5,0.8l-0.4,0.2
				c-3.4,1.7-7.2,5.3-11,10.4c-4.1,5.5-5.1,7.8-9.5,7.8c-4.6,0-6.7-7.3-11.8-7.4c-8.4-0.2-16.1,12.2-25,13.2
				C21,51,12.8,30.4,0.9,25.9C0.7,25.8,0,25.5,0,25C0,24.7,0.1,24.5,0.6,24.3z"/>
			<polygon id="Shape_1_" class="st1" points="23.8,29 22.2,29 19,21 20.9,21 23,26.6 25.1,21 27,21 			"/>
			<path id="Shape_2_" class="st1" d="M38.7,26.5c-0.4,1-1.2,1.7-2.1,2.1c-1,0.4-2.2,0.4-3.2,0c-0.5-0.2-0.9-0.5-1.3-0.9
				c-0.4-0.4-0.6-0.8-0.8-1.3c-0.2-0.5-0.3-1-0.3-1.6c0-0.5,0.1-1.1,0.3-1.6c0.4-1,1.2-1.7,2.1-2.1c1-0.4,2.2-0.4,3.2,0
				c0.5,0.2,0.9,0.5,1.3,0.9c0.4,0.4,0.6,0.8,0.8,1.3c0.2,0.5,0.3,1,0.3,1.6C39,25.5,38.9,26.1,38.7,26.5z M37.3,25
				c0-0.3-0.1-0.6-0.2-0.9c-0.2-0.6-0.6-1-1.2-1.3c-0.3-0.1-0.6-0.2-0.9-0.2c-0.3,0-0.6,0.1-0.9,0.2c-0.3,0.1-0.5,0.3-0.7,0.5
				c-0.2,0.2-0.4,0.5-0.5,0.8c-0.1,0.3-0.2,0.6-0.2,0.9c0,0.3,0.1,0.6,0.2,0.9c0.2,0.6,0.6,1,1.2,1.3c0.3,0.1,0.6,0.2,0.9,0.2
				c0.3,0,0.6-0.1,0.9-0.2c0.3-0.1,0.5-0.3,0.7-0.5c0.2-0.2,0.4-0.5,0.5-0.8C37.2,25.6,37.3,25.3,37.3,25L37.3,25z"/>
			<polygon id="Shape_3_" class="st1" points="44,29 44,21 46,21 46,29 			"/>
			<path id="Shape_4_" class="st1" d="M57.8,27.6c-0.1,0.3-0.3,0.6-0.6,0.8c-0.3,0.2-0.6,0.4-0.9,0.5C56,29,55.6,29,55.2,29
				c-0.6,0-1.2-0.1-1.7-0.3c-0.6-0.2-1.1-0.5-1.5-0.9l1-1.2c0.3,0.3,0.7,0.5,1.1,0.7c0.4,0.2,0.8,0.3,1.2,0.3c0.3,0,0.6-0.1,0.8-0.2
				c0.2-0.1,0.3-0.3,0.3-0.6c0-0.1,0-0.2-0.1-0.3c-0.1-0.1-0.1-0.2-0.2-0.2c-0.1-0.1-0.3-0.2-0.5-0.2c-0.2-0.1-0.5-0.2-0.8-0.2
				c-0.4-0.1-0.7-0.2-1-0.3c-0.3-0.1-0.6-0.3-0.8-0.4c-0.2-0.2-0.4-0.4-0.5-0.7c-0.1-0.3-0.2-0.6-0.2-1c0-0.3,0.1-0.7,0.2-1
				c0.1-0.3,0.3-0.5,0.5-0.7c0.2-0.2,0.5-0.4,0.8-0.5c0.3-0.1,0.7-0.2,1.1-0.2c0.5,0,1,0.1,1.5,0.3c0.5,0.2,0.9,0.4,1.3,0.7
				l-0.9,1.3c-0.3-0.2-0.6-0.4-1-0.6c-0.3-0.1-0.6-0.2-1-0.2c-0.3,0-0.5,0-0.7,0.2c-0.2,0.1-0.2,0.3-0.2,0.5c0,0.1,0,0.2,0.1,0.3
				c0.1,0.1,0.1,0.2,0.3,0.2c0.2,0.1,0.3,0.2,0.5,0.2l0.8,0.2c0.4,0.1,0.7,0.2,1,0.3c0.3,0.1,0.5,0.3,0.8,0.5
				c0.2,0.2,0.4,0.4,0.5,0.6c0.1,0.3,0.2,0.6,0.2,0.9C58,26.9,57.9,27.3,57.8,27.6z"/>
			<path id="Shape_5_" class="st1" d="M69.7,26.6c-0.4,1-1.2,1.7-2.1,2.1c-1,0.4-2.2,0.4-3.2,0c-0.5-0.2-0.9-0.5-1.3-0.9
				c-0.4-0.4-0.6-0.8-0.8-1.3c-0.2-0.5-0.3-1-0.3-1.6c0-0.5,0.1-1.1,0.3-1.6c0.4-1,1.2-1.7,2.1-2.1c1-0.4,2.2-0.4,3.2,0
				c0.5,0.2,0.9,0.5,1.3,0.9c0.4,0.4,0.6,0.8,0.8,1.3c0.2,0.5,0.3,1,0.3,1.6C70,25.5,69.9,26.1,69.7,26.6z M68.3,25
				c0-0.3-0.1-0.6-0.2-0.9c-0.2-0.6-0.6-1-1.2-1.3c-0.3-0.1-0.6-0.2-0.9-0.2c-0.3,0-0.6,0.1-0.9,0.2c-0.3,0.1-0.5,0.3-0.7,0.5
				c-0.2,0.2-0.4,0.5-0.5,0.8c-0.1,0.3-0.2,0.6-0.2,0.9c0,0.3,0.1,0.6,0.2,0.9c0.2,0.6,0.6,1,1.2,1.3c0.3,0.1,0.6,0.2,0.9,0.2
				c0.3,0,0.6-0.1,0.9-0.2c0.3-0.1,0.5-0.3,0.7-0.5c0.2-0.2,0.4-0.5,0.5-0.8C68.2,25.6,68.3,25.3,68.3,25L68.3,25z"/>
		</g>
	</g>
</g>
</svg>
