<svg xmlns="http://www.w3.org/2000/svg" viewBox="0 0 1086.82 148.79"><defs><style>.cls-1{fill:#001193;}.cls-2{fill:#4b569a;}</style></defs><title>Ресурс 1</title><g id="Слой_2" data-name="Слой 2"><g id="Слой_1-2" data-name="Слой 1"><path class="cls-1" d="M4.57,119.18c.4-.24.8-.46,1.2-.71a121.9,121.9,0,0,1,40.69-16.38,142.72,142.72,0,0,1,19-2.58,3.71,3.71,0,0,0,.87-.1c.63-.21,1.14-.53,1.07-1.34,0-.43,0-.87,0-1.31,0-8.45,0-16.91,0-25.36a4.22,4.22,0,0,1,1.27-3.21A146.53,146.53,0,0,0,92.68,34c1.91-3.71,3.55-7.55,5.32-11.33l.61-1.32,2.59.84v84.64c-1.49.22-2.94.86-4.5.53a143.77,143.77,0,0,0-36.07-2.7,129.31,129.31,0,0,0-42.81,9c-4.22,1.71-8.27,3.83-12.4,5.77a3,3,0,0,0-1.22,1c.34-.13.69-.25,1-.4a153.53,153.53,0,0,1,39.16-11.86A130.54,130.54,0,0,1,71.5,106.2a130.36,130.36,0,0,1,28.64,3.94,6,6,0,0,0,3.59-.54v-1.78q0-20,0-40.08a3.15,3.15,0,0,1,1.13-2.62c7.33-6.66,14.79-13.19,21.57-20.44.89-1,1.76-1.93,2.72-3l1.91,1V122a4.64,4.64,0,0,1-4.28.49,190.82,190.82,0,0,0-34.09-8,199.5,199.5,0,0,0-34.43-1.93,196.27,196.27,0,0,0-54.27,9c-.74.24-1.46.53-2.21.74a13.48,13.48,0,0,1-1.55.25,3.26,3.26,0,0,1-.18-.68c0-2.77,0-5.54,0-8.31a2.33,2.33,0,0,1,.93-1.72q8.31-8.7,15.75-18.16A247.33,247.33,0,0,0,54.61,26.46,153,153,0,0,0,61.33,3c.19-.95.36-1.89.56-3l3,.71v96a7.05,7.05,0,0,1-2.95.88,120.05,120.05,0,0,0-41.13,11.52,101.68,101.68,0,0,0-15,8.89c-.45.32-.87.66-1.31,1Z"/><path class="cls-1" d="M207.42,122.42h-8.78V44h12.05l6.92,15.69,6.91,15.73q3.49,7.93,7,15.86c2.3,5.21,4.56,10.44,7.1,15.62,5-10.49,9.69-21,14.44-31.51L267.21,44h11.27c.32,1.21.36,76.91,0,78.45h-8.85c-.18-1.59-.05-3.22-.08-4.85s0-3.21,0-4.81V59a1.27,1.27,0,0,0-.3-.06.18.18,0,0,0-.11.09L240.9,122.45h-4.47Q222.1,90.54,207.8,58.56l-.38.09Z"/><path class="cls-1" d="M652.29,122.42V44c.45,0,.83-.09,1.2-.09,7.38,0,14.76-.06,22.14.05a56.65,56.65,0,0,1,17.61,2.78C703.7,50.31,710.6,57.31,713.52,68a49.59,49.59,0,0,1,.36,25.91c-3.39,13-11.67,21.53-24.27,26a47.19,47.19,0,0,1-15.29,2.6c-6.94.07-13.89,0-20.83,0C653.12,122.5,652.75,122.45,652.29,122.42Zm9.09-8.27c.45,0,.83.12,1.21.12,3.25,0,6.51,0,9.76,0A48.47,48.47,0,0,0,684.18,113c10-2.65,16.92-8.68,19.94-18.7a41.68,41.68,0,0,0,.2-23.15c-2.27-8.48-7.73-14.05-16-16.84a38.88,38.88,0,0,0-11.43-2c-4.76-.12-9.52-.07-14.27-.08-.37,0-.75.07-1.19.11Z"/><path class="cls-1" d="M619.34,114.47c0,2.45,0,4.63,0,6.81a1,1,0,0,1-.76,1.09,31.2,31.2,0,0,1-4,1.12,21.35,21.35,0,0,1-8.67-.33,11.54,11.54,0,0,1-8.33-7.64,20,20,0,0,1-1.19-6.27c-.06-1.84-.05-3.69-.05-5.54q0-13.91,0-27.83V74.07H575v48.35h-8.88c-.1-1.55,0-3.13,0-4.71s0-3.21,0-4.81V74h-9.48V66.53a31.53,31.53,0,0,1,4.6-.12c1.55,0,3.1,0,4.8,0,0-.58.07-1,.07-1.51,0-2.62,0-5.25,0-7.87a22.27,22.27,0,0,1,1.15-7.16,16.8,16.8,0,0,1,15.57-11.57,46.81,46.81,0,0,1,5.65.34,10.36,10.36,0,0,1,1.92.55v7.86c-.49-.17-.88-.29-1.27-.43a12.57,12.57,0,0,0-7.58-.48,7.46,7.46,0,0,0-5,3.92,12,12,0,0,0-1.42,5.3c-.11,3.58,0,7.17,0,10.76,1,.34,18.79.48,21.25.13,0-4.46,0-9,0-13.56l8.88-2.86V66.38c4.77.09,9.4,0,14.09.06v7.48c-4.64.1-9.23,0-13.93.07,0,.52-.12.93-.12,1.35q0,15.44,0,30.89a22.12,22.12,0,0,0,.37,3.91c.7,3.81,2.91,5.72,6.77,6A11.1,11.1,0,0,0,619.34,114.47Z"/><path class="cls-1" d="M970.61,122.42h-8.87V120.5c0-9.91,0-19.81,0-29.72a38.75,38.75,0,0,0-.78-8.69,24.79,24.79,0,0,0-.83-2.79A9.35,9.35,0,0,0,952.88,73c-5.64-1.23-10.24.38-13.71,5.07a19.89,19.89,0,0,0-3.91,12.12q0,15.15,0,30.3c0,.58,0,1.16,0,1.72a42.12,42.12,0,0,1-8.93.15v-1.66q0-15.52,0-31a29.09,29.09,0,0,0-.94-8.22c-1-3.46-2.8-6.33-6.27-7.75-4.9-2-11.21-1.61-15.41,3.94A19.36,19.36,0,0,0,900,87.91c-.08.87-.07,1.75-.07,2.62q0,15,0,30c0,.58,0,1.15,0,1.84h-8.83V66.65a40.15,40.15,0,0,1,8.8,0V75l.33.12.84-1.23a18.36,18.36,0,0,1,10.42-8c4.88-1.35,9.7-1.27,14.28,1.21a15.47,15.47,0,0,1,7.13,8c.16.4.32.81.54,1.37.28-.32.51-.53.68-.78.87-1.22,1.65-2.53,2.61-3.68a18.67,18.67,0,0,1,14.08-6.88,24.93,24.93,0,0,1,6.52.45,15,15,0,0,1,11.25,9.59,29.47,29.47,0,0,1,1.95,9.07c.1,1.4.12,2.81.12,4.22q0,16.1,0,32.2Z"/><path class="cls-1" d="M838.49,79.11c0-2.77,0-5.49,0-8.2a1.42,1.42,0,0,1,.64-1,24.73,24.73,0,0,1,3.39-1.67c5.58-2.11,11.3-3.51,17.34-3.1a23.4,23.4,0,0,1,6.54,1.32A15.25,15.25,0,0,1,876,76.84a25.15,25.15,0,0,1,1.19,7.45q.05,18.64,0,37.29c0,.24,0,.48-.06.82h-8.85V114L868,114c-.32.45-.64.9-1,1.36a18.15,18.15,0,0,1-12.21,8.21,22.36,22.36,0,0,1-11.9-.95,14.87,14.87,0,0,1-10-14.17,22.06,22.06,0,0,1,.8-6.76A15.36,15.36,0,0,1,842.27,92a30.49,30.49,0,0,1,9.34-2.65l15.27-2.13c.43-.06.85-.17,1.44-.29,0-4.1-.46-8-3.39-11.23a10,10,0,0,0-7.35-3,27.26,27.26,0,0,0-17.43,5.48l-1.3.93S838.76,79.1,838.49,79.11Zm29.85,15.07c-.72.05-1.15.06-1.58.12-4.09.57-8.17,1.13-12.25,1.74a28.2,28.2,0,0,0-7.43,2,7.87,7.87,0,0,0-4.79,6.48,18,18,0,0,0-.15,2,8.73,8.73,0,0,0,5.68,8.8A13.72,13.72,0,0,0,856,116c6.18-1.26,9.88-5.23,11.72-11.11a21.12,21.12,0,0,0,.65-6.5C868.34,97,868.34,95.67,868.34,94.18Z"/><path class="cls-1" d="M396.8,96c.06-5.81.62-10.42,2.47-14.79C403.15,72,410.15,66.84,420,65.43a34.51,34.51,0,0,1,12.88.42,22.45,22.45,0,0,1,16.51,14.06,36.25,36.25,0,0,1,.28,27.44c-3.9,9.94-11.52,15.3-22.16,16.36a31.15,31.15,0,0,1-12.4-1.06c-8.78-2.71-14.23-8.74-16.93-17.39A33,33,0,0,1,396.8,96Zm46.1-1.63a33.86,33.86,0,0,0-1.34-9.65c-1.8-5.63-5.25-9.68-11.09-11.35a21.57,21.57,0,0,0-6.2-.72c-8.12.08-14.39,4.57-16.88,12.3a30.87,30.87,0,0,0-.25,18.51c1.75,5.92,5.5,10.07,11.5,12a21.3,21.3,0,0,0,8.07.75c6.78-.49,11.58-3.81,14.22-10.12A30.87,30.87,0,0,0,442.9,94.38Z"/><path class="cls-1" d="M554.05,93.84a33.13,33.13,0,0,1-2.67,14.46c-4.29,9.32-11.6,14.42-21.8,15.42a31.69,31.69,0,0,1-12.4-1.05,23.88,23.88,0,0,1-16.31-15.6,35.89,35.89,0,0,1,.71-26.34c3.46-8.32,9.88-13.26,18.72-15a34.15,34.15,0,0,1,14.6.13C544,68,549.71,73.93,552.51,82.74A35.4,35.4,0,0,1,554.05,93.84Zm-9.07.39c-.17-4.22-.58-7.83-2-11.25a15.52,15.52,0,0,0-10.57-9.64,22.07,22.07,0,0,0-6.2-.69c-7.82.1-14,4.33-16.55,11.72a30.26,30.26,0,0,0-.2,19.88,16.59,16.59,0,0,0,11.34,11.21,21.71,21.71,0,0,0,7.64.73c7.32-.39,12.51-4.28,14.94-11.2A33.57,33.57,0,0,0,545,94.23Z"/><path class="cls-1" d="M761.71,66.48h9.13c-.14.47-.23.87-.38,1.25L754.09,109l-8.85,22.33a41.47,41.47,0,0,1-5.3,9.84,20.91,20.91,0,0,1-5.46,5.19,14,14,0,0,1-7.38,2.41c-2.08,0-4.16-.2-6.24-.34a3.67,3.67,0,0,1-.84-.28v-7.78c1,.22,2,.45,2.9.63a9.79,9.79,0,0,0,10.53-4.25,23.51,23.51,0,0,0,2.15-4c1.28-2.88,2.41-5.83,3.71-8.71a3.88,3.88,0,0,0,.06-3.3q-8.52-21.6-17-43.24l-3.71-9.49c-.17-.45-.34-.9-.59-1.57,3.34-.18,6.55,0,9.88-.09l8.14,23.26c2.7,7.72,5.36,15.45,8.3,23.16,1.73-3.78,3-7.66,4.47-11.49s2.84-7.74,4.27-11.62l4.28-11.61Z"/><path class="cls-1" d="M786.28,122.43h-8.7c-.28-1.08-.41-52.92-.12-55.91,2.85-.21,5.73-.07,8.82-.09v9l.34.09.87-1.26a19.47,19.47,0,0,1,14-9,22.81,22.81,0,0,1,10.37.78,15.76,15.76,0,0,1,9.43,8.57,27.73,27.73,0,0,1,2.55,11.57c.1,4.66,0,9.32,0,14q0,10.27,0,20.54c0,.53,0,1.05,0,1.67H815v-1.77q0-15.15,0-30.31a29.8,29.8,0,0,0-1.17-8.91,14.09,14.09,0,0,0-2.28-4.53,11.13,11.13,0,0,0-8.61-4.21c-9.15-.57-14.64,6.28-16,12.48a27.75,27.75,0,0,0-.61,5.77c-.06,9.91,0,19.81,0,29.72Z"/><path class="cls-1" d="M490.71,76.55c-.72-.43-1.17-.71-1.62-1a20.64,20.64,0,0,0-14-2.63,8.94,8.94,0,0,0-2.22.68c-2.76,1.26-4.58,3.3-4.77,6.43s.74,5.72,3.53,7.32c2.18,1.25,4.47,2.32,6.72,3.45s4.28,2.06,6.38,3.17a22.63,22.63,0,0,1,2.79,1.85c4.29,3.15,6,7.48,5.69,12.69-.4,6.59-4.12,10.79-9.9,13.39a25.8,25.8,0,0,1-11.24,2,29,29,0,0,1-11.85-2.63,2.11,2.11,0,0,1-1.44-2.32c.11-2.13,0-4.27,0-6.41,0-.42,0-.84,0-1.52l1.48,1a22.29,22.29,0,0,0,17.27,3.85,10.64,10.64,0,0,0,1.13-.28c2.91-.84,4.86-2.61,5.33-5.7s-.33-5.88-3.14-7.59-5.71-3.09-8.57-4.62c-2.22-1.19-4.49-2.29-6.66-3.57-8.7-5.13-8.74-18.36-1.33-24.28a20.86,20.86,0,0,1,11.13-4.61A28.27,28.27,0,0,1,489.17,67c1.54.63,1.54.63,1.54,2.32C490.71,71.62,490.71,73.94,490.71,76.55Z"/><path class="cls-1" d="M1052.42,111.07c.6.4.92.6,1.23.83a22.37,22.37,0,0,0,16.09,4.21,14.71,14.71,0,0,0,3.65-.93c5.49-2.12,5.28-9.65,1.91-12.22a21.26,21.26,0,0,0-2.89-2c-2.36-1.25-4.79-2.35-7.15-3.59s-4.65-2.43-6.83-3.85c-7.48-4.86-7.55-16.43-2.3-22a19,19,0,0,1,9.76-5.75,28,28,0,0,1,16.6,1.11c.54.21,1.06.46,1.64.72v8.73a6.57,6.57,0,0,1-.87-.39,21.33,21.33,0,0,0-12.47-3.28,11.61,11.61,0,0,0-5.54,1.56c-5.18,3-4.36,10.66-.42,12.92,2.06,1.18,4.17,2.28,6.29,3.34s4.24,1.94,6.3,3a28.42,28.42,0,0,1,3.67,2.36c4.75,3.5,6.31,8.33,5.57,14s-4.15,9.37-9.11,11.79a25.15,25.15,0,0,1-11.32,2.25,28.6,28.6,0,0,1-12.56-2.71,1.86,1.86,0,0,1-1.25-2C1052.48,116.59,1052.42,114,1052.42,111.07Z"/><path class="cls-1" d="M1045.85,111.59c0,.52.08.8.08,1.07,0,2,0,4.08,0,6.12a1.74,1.74,0,0,1-1.11,1.8,28.17,28.17,0,0,1-9.24,3,30.37,30.37,0,0,1-13.54-.87,24.07,24.07,0,0,1-16.16-15.38A33.86,33.86,0,0,1,1007.33,80c4.17-8.49,11.23-13.29,20.61-14.57a32,32,0,0,1,15,1.17c1,.35,2,.78,3,1.19v9.1l-1.4-.83a22.46,22.46,0,0,0-11.88-3.38c-8.05.06-13.71,3.89-17.28,11a21.83,21.83,0,0,0-2.16,7.81c-.46,4.84-.24,9.63,1.81,14.13,3,6.55,8.13,10.06,15.3,10.61a22.25,22.25,0,0,0,14.46-3.91Z"/><path class="cls-1" d="M356.48,111.63c0,2.79,0,5.26,0,7.74,0,.6-.38.84-.82,1.08a26.32,26.32,0,0,1-7.77,2.8,30.41,30.41,0,0,1-16.1-.86c-8.77-3.1-14.09-9.44-16.33-18.31a34.44,34.44,0,0,1,1.33-21.6c3.93-9.84,11.26-15.57,21.79-17.05a31.93,31.93,0,0,1,15,1.18c.64.22,1.27.48,1.9.74.36.15.69.34,1.11.55v9c-.54-.31-1-.56-1.43-.82a22.5,22.5,0,0,0-11.88-3.39c-8.19.06-13.89,4-17.41,11.24a25.45,25.45,0,0,0-2.23,11.91,24.7,24.7,0,0,0,1.56,8.7c2.87,7.19,8.15,11.13,15.91,11.69a22.12,22.12,0,0,0,14-3.69C355.4,112.26,355.81,112,356.48,111.63Z"/><path class="cls-1" d="M396,66.31V75.2l-1-.41c-4.83-2.08-11.09-1.75-15.05,3.81a23,23,0,0,0-4,11.4c-.16,1.64-.2,3.3-.21,4.95q0,12.82,0,25.64c0,.57,0,1.15,0,1.82h-8.64c-.28-1.11-.36-54-.06-56,2.8-.07,5.63,0,8.6,0,.24,3.8,0,7.47.39,11.24.17-.34.36-.67.49-1a19.22,19.22,0,0,1,4.89-7.49c4-3.7,8.72-4.36,13.85-3.2a2.25,2.25,0,0,1,.41.14A2.49,2.49,0,0,1,396,66.31Z"/><path class="cls-1" d="M993.13,122.42c-.29,0-.52.08-.75.08h-7.83c-.3-1.11-.41-53.65-.13-56.06h8.71Z"/><path class="cls-1" d="M303.58,122.42H295v-56h8.56C303.87,67.67,303.89,121,303.58,122.42Z"/><path class="cls-2" d="M989,42.1a5.64,5.64,0,0,1,5.81,5.78,5.75,5.75,0,0,1-6,5.82,5.62,5.62,0,0,1-5.72-5.87A5.69,5.69,0,0,1,989,42.1Z"/><path class="cls-1" d="M299.6,42.1a5.67,5.67,0,0,1,5.79,5.81,5.79,5.79,0,0,1-6,5.79,5.8,5.8,0,0,1,.21-11.61Z"/></g></g></svg>