<svg xmlns="http://www.w3.org/2000/svg" xmlns:xlink="http://www.w3.org/1999/xlink" viewBox="0 0 411.02 421.08"><defs><style>.cls-1{isolation:isolate;}.cls-2{fill:url(#Безымянный_градиент_26);}.cls-3{mix-blend-mode:multiply;fill:url(#Безымянный_градиент_96);}.cls-4{fill:url(#Безымянный_градиент_83);}</style><linearGradient id="Безымянный_градиент_26" x1="315.15" y1="54.94" x2="127.11" y2="352.68" gradientUnits="userSpaceOnUse"><stop offset="0" stop-color="#508cff" stop-opacity="0.4"/><stop offset="0.09" stop-color="#687ee2" stop-opacity="0.48"/><stop offset="0.26" stop-color="#9563ac" stop-opacity="0.64"/><stop offset="0.43" stop-color="#ba4d7f" stop-opacity="0.77"/><stop offset="0.59" stop-color="#d73c5d" stop-opacity="0.87"/><stop offset="0.74" stop-color="#ec2f43" stop-opacity="0.94"/><stop offset="0.87" stop-color="#f92834" stop-opacity="0.98"/><stop offset="0.97" stop-color="#fd252f"/></linearGradient><linearGradient id="Безымянный_градиент_96" x1="17.45" y1="221.03" x2="411.02" y2="221.03" gradientUnits="userSpaceOnUse"><stop offset="0" stop-color="#6485f6"/><stop offset="0.97" stop-color="#6eabfb"/></linearGradient><linearGradient id="Безымянный_градиент_83" x1="17.45" y1="221.03" x2="411.02" y2="221.03" gradientUnits="userSpaceOnUse"><stop offset="0" stop-color="#4a27c5" stop-opacity="0.4"/><stop offset="0.26" stop-color="#4a27c5" stop-opacity="0.6"/><stop offset="0.59" stop-color="#4a27c5" stop-opacity="0.81"/><stop offset="0.85" stop-color="#4a27c5" stop-opacity="0.95"/><stop offset="1" stop-color="#4a27c5"/></linearGradient></defs><title>pricing_right</title><g class="cls-1"><g id="Слой_2" data-name="Слой 2"><g id="Слой_1-2" data-name="Слой 1"><path class="cls-2" d="M220.69,10c-156.4,96.5-234.21,102-218.76,221.77S291.59,479,374,346.36,326.23-55.11,220.69,10Z"/><path class="cls-3" d="M188.38,420.85C117.74,417.56,57,366.72,26.52,254.61s21-267.74,77.51-227C334.1,193.43,385.3,50.24,405.76,124.51,430.92,215.86,366.92,429.15,188.38,420.85Z"/><path class="cls-4" d="M188.38,420.85C117.74,417.56,57,366.72,26.52,254.61s21-267.74,77.51-227C334.1,193.43,385.3,50.24,405.76,124.51,430.92,215.86,366.92,429.15,188.38,420.85Z"/></g></g></g></svg>