<?xml version="1.0" encoding="UTF-8"?>
<svg width="288px" height="275px" viewBox="0 0 288 275" version="1.1" xmlns="http://www.w3.org/2000/svg" xmlns:xlink="http://www.w3.org/1999/xlink">
    <!-- Generator: Sketch 50.2 (55047) - http://www.bohemiancoding.com/sketch -->
    <title>Group 15</title>
    <desc>Created with Sketch.</desc>
    <defs>
        <linearGradient x1="78.7862731%" y1="13.6426539%" x2="31.7749881%" y2="87.5736446%" id="linearGradient-1">
            <stop stop-color="#508CFF" stop-opacity="0.4" offset="0%"></stop>
            <stop stop-color="#687EE2" stop-opacity="0.48" offset="9%"></stop>
            <stop stop-color="#9563AC" stop-opacity="0.64" offset="26%"></stop>
            <stop stop-color="#BA4D7F" stop-opacity="0.77" offset="43%"></stop>
            <stop stop-color="#D73C5D" stop-opacity="0.87" offset="59%"></stop>
            <stop stop-color="#EC2F43" stop-opacity="0.94" offset="74%"></stop>
            <stop stop-color="#F92834" stop-opacity="0.98" offset="87%"></stop>
            <stop stop-color="#FD252F" offset="97%"></stop>
        </linearGradient>
        <linearGradient x1="0.000481001499%" y1="49.9963712%" x2="100.000673%" y2="49.9963712%" id="linearGradient-2">
            <stop stop-color="#6485F6" offset="0%"></stop>
            <stop stop-color="#6EABFB" offset="97%"></stop>
        </linearGradient>
        <linearGradient x1="0.000481001499%" y1="49.9963712%" x2="100.000673%" y2="49.9963712%" id="linearGradient-3">
            <stop stop-color="#4A27C5" stop-opacity="0.4" offset="0%"></stop>
            <stop stop-color="#4A27C5" stop-opacity="0.6" offset="26%"></stop>
            <stop stop-color="#4A27C5" stop-opacity="0.81" offset="59%"></stop>
            <stop stop-color="#4A27C5" stop-opacity="0.95" offset="85%"></stop>
            <stop stop-color="#4A27C5" offset="100%"></stop>
        </linearGradient>
    </defs>
    <g id="Voiso" stroke="none" stroke-width="1" fill="none" fill-rule="evenodd">
        <g id="Voiso_desktop" transform="translate(-185.000000, -7086.000000)">
            <g id="Group-13" transform="translate(185.000000, 7086.000000)">
                <g id="Group-15">
                    <g id="pricing_left" fill-rule="nonzero">
                        <path d="M150.067044,6.78414906 C43.7161022,72.2081118 -9.19446735,75.9609204 1.31096456,157.12583 C11.8163965,238.29074 198.272128,324.681783 254.291803,234.795068 C310.311479,144.908353 221.82744,-37.3530495 150.067044,6.78414906 Z" id="Shape" fill="url(#linearGradient-1)"></path>
                        <path d="M145.585271,264.542774 C86.4540689,294.129835 -31.3205112,258.053652 12.5905911,192.54342 C74.8299269,99.6926312 69.0805761,94.6014868 79.1924646,47.4597153 C97.1722526,-36.4398405 252.251408,58.2610094 275.436972,105.013294 C312.755486,180.274597 266.196197,204.241924 145.585271,264.542774 Z" id="Shape" fill="url(#linearGradient-2)" style="mix-blend-mode: multiply;"></path>
                        <path d="M145.585271,264.542774 C86.4540689,294.129835 -31.3205112,258.053652 12.5905911,192.54342 C74.8299269,99.6926312 69.0805761,94.6014868 79.1924646,47.4597153 C97.1722526,-36.4398405 252.251408,58.2610094 275.436972,105.013294 C312.755486,180.274597 266.196197,204.241924 145.585271,264.542774 Z" id="Shape" fill="url(#linearGradient-3)"></path>
                    </g>
                    <path d="M62.24,186 L62.24,144 L91.82,144 L91.82,146.88 L65.36,146.88 L65.36,164.1 L89.12,164.1 L89.12,166.98 L65.36,166.98 L65.36,186 L62.24,186 Z M101.6,186 L101.6,144 L119.24,144 C124.4,144 128.54,145.62 131.06,148.14 C133.04,150.12 134.24,152.94 134.24,155.94 L134.24,156.06 C134.24,163.08 129.02,167.1 121.94,168.06 L135.8,186 L131.84,186 L118.46,168.6 L104.72,168.6 L104.72,186 L101.6,186 Z M104.72,165.78 L118.88,165.78 C125.9,165.78 131.12,162.24 131.12,156.18 L131.12,156.06 C131.12,150.42 126.68,146.88 119.06,146.88 L104.72,146.88 L104.72,165.78 Z M144.98,186 L144.98,144 L174.86,144 L174.86,146.88 L148.1,146.88 L148.1,163.38 L172.16,163.38 L172.16,166.26 L148.1,166.26 L148.1,183.12 L175.16,183.12 L175.16,186 L144.98,186 Z M185.18,186 L185.18,144 L215.06,144 L215.06,146.88 L188.3,146.88 L188.3,163.38 L212.36,163.38 L212.36,166.26 L188.3,166.26 L188.3,183.12 L215.36,183.12 L215.36,186 L185.18,186 Z" id="FREE" fill="#FFFFFF"></path>
                    <path d="M54.4,123.33 C49.36,123.33 45.79,120.15 45.79,114.27 L45.79,102 L47.35,102 L47.35,114.12 C47.35,119.07 50.02,121.92 54.46,121.92 C58.72,121.92 61.45,119.34 61.45,114.27 L61.45,102 L63.01,102 L63.01,114.09 C63.01,120.12 59.5,123.33 54.4,123.33 Z M68.59,127.8 L68.59,107.7 L70.06,107.7 L70.06,111.12 C71.38,109.11 73.33,107.34 76.36,107.34 C80.05,107.34 83.8,110.31 83.8,115.29 L83.8,115.35 C83.8,120.33 80.05,123.36 76.36,123.36 C73.3,123.36 71.32,121.62 70.06,119.7 L70.06,127.8 L68.59,127.8 Z M76.21,121.95 C79.54,121.95 82.21,119.52 82.21,115.41 L82.21,115.35 C82.21,111.33 79.42,108.75 76.21,108.75 C73.03,108.75 69.97,111.42 69.97,115.32 L69.97,115.38 C69.97,119.31 73.03,121.95 76.21,121.95 Z M102.49,123.27 C100.12,123.27 98.2,121.98 98.2,119.07 L98.2,109.05 L95.98,109.05 L95.98,107.7 L98.2,107.7 L98.2,102.81 L99.67,102.81 L99.67,107.7 L105.04,107.7 L105.04,109.05 L99.67,109.05 L99.67,118.92 C99.67,121.11 100.96,121.89 102.73,121.89 C103.48,121.89 104.11,121.74 104.98,121.35 L104.98,122.73 C104.2,123.09 103.45,123.27 102.49,123.27 Z M116.17,123.36 C111.64,123.36 108.34,119.7 108.34,115.41 L108.34,115.35 C108.34,111.06 111.67,107.34 116.23,107.34 C120.76,107.34 124.06,111 124.06,115.29 L124.06,115.35 C124.06,119.64 120.73,123.36 116.17,123.36 Z M116.23,121.98 C119.86,121.98 122.47,119.01 122.47,115.41 L122.47,115.35 C122.47,111.66 119.71,108.72 116.17,108.72 C112.54,108.72 109.93,111.69 109.93,115.29 L109.93,115.35 C109.93,119.04 112.69,121.98 116.23,121.98 Z M143.86,123.36 C141.01,123.36 138.34,121.83 136.51,119.97 L137.62,118.86 C139.51,120.75 141.7,121.95 143.92,121.95 C147.25,121.95 149.56,119.61 149.56,116.67 L149.56,116.61 C149.56,113.7 147.19,111.63 143.8,111.63 C141.85,111.63 140.38,112.23 139.06,112.95 L137.86,112.17 L138.46,102 L150.25,102 L150.25,103.5 L139.84,103.5 L139.33,111.36 C140.68,110.7 142.03,110.22 143.98,110.22 C148.03,110.22 151.18,112.8 151.18,116.55 L151.18,116.61 C151.18,120.57 148.09,123.36 143.86,123.36 Z M170.56,123.36 C166.69,123.36 164.44,120.72 164.44,117.06 L164.44,107.7 L165.91,107.7 L165.91,116.79 C165.91,119.94 167.68,122.01 170.77,122.01 C173.77,122.01 176.08,119.73 176.08,116.55 L176.08,107.7 L177.55,107.7 L177.55,123 L176.08,123 L176.08,120.15 C175.06,121.95 173.35,123.36 170.56,123.36 Z M188.08,123.3 C185.86,123.3 183.43,122.4 181.81,121.08 L182.68,119.91 C184.36,121.2 186.22,121.92 188.17,121.92 C190.24,121.92 191.86,120.78 191.86,119.01 L191.86,118.95 C191.86,117.15 189.94,116.49 187.81,115.89 C185.32,115.17 182.56,114.42 182.56,111.69 L182.56,111.63 C182.56,109.17 184.63,107.4 187.6,107.4 C189.43,107.4 191.5,108.06 193.03,109.08 L192.25,110.31 C190.84,109.38 189.16,108.78 187.54,108.78 C185.44,108.78 184.06,109.92 184.06,111.45 L184.06,111.51 C184.06,113.22 186.13,113.85 188.32,114.48 C190.78,115.17 193.36,116.07 193.36,118.77 L193.36,118.83 C193.36,121.56 191.02,123.3 188.08,123.3 Z M204.49,123.36 C200.47,123.36 196.99,120.15 196.99,115.38 L196.99,115.32 C196.99,110.88 200.11,107.34 204.25,107.34 C208.54,107.34 211.27,110.82 211.27,115.35 C211.27,115.62 211.27,115.71 211.24,115.95 L198.55,115.95 C198.82,119.76 201.55,121.98 204.55,121.98 C206.92,121.98 208.54,120.93 209.8,119.58 L210.82,120.48 C209.26,122.16 207.43,123.36 204.49,123.36 Z M198.55,114.63 L209.68,114.63 C209.47,111.54 207.7,108.69 204.19,108.69 C201.16,108.69 198.82,111.24 198.55,114.63 Z M215.56,123 L215.56,107.7 L217.03,107.7 L217.03,112.05 C218.23,109.32 220.78,107.34 223.81,107.46 L223.81,109.08 L223.66,109.08 C220.12,109.08 217.03,111.75 217.03,116.73 L217.03,123 L215.56,123 Z M232.51,123.3 C230.29,123.3 227.86,122.4 226.24,121.08 L227.11,119.91 C228.79,121.2 230.65,121.92 232.6,121.92 C234.67,121.92 236.29,120.78 236.29,119.01 L236.29,118.95 C236.29,117.15 234.37,116.49 232.24,115.89 C229.75,115.17 226.99,114.42 226.99,111.69 L226.99,111.63 C226.99,109.17 229.06,107.4 232.03,107.4 C233.86,107.4 235.93,108.06 237.46,109.08 L236.68,110.31 C235.27,109.38 233.59,108.78 231.97,108.78 C229.87,108.78 228.49,109.92 228.49,111.45 L228.49,111.51 C228.49,113.22 230.56,113.85 232.75,114.48 C235.21,115.17 237.79,116.07 237.79,118.77 L237.79,118.83 C237.79,121.56 235.45,123.3 232.51,123.3 Z" id="Up-to-5-users" fill="#FFFFFF"></path>
                </g>
            </g>
        </g>
    </g>
</svg>