<svg xmlns="http://www.w3.org/2000/svg" xmlns:xlink="http://www.w3.org/1999/xlink" viewBox="0 0 413.83 395.48"><defs><style>.cls-1{isolation:isolate;}.cls-2{fill:url(#Безымянный_градиент_26);}.cls-3{mix-blend-mode:multiply;fill:url(#Безымянный_градиент_96);}.cls-4{fill:url(#Безымянный_градиент_83);}</style><linearGradient id="Безымянный_градиент_26" x1="307.41" y1="53.59" x2="123.98" y2="344.01" gradientUnits="userSpaceOnUse"><stop offset="0" stop-color="#508cff" stop-opacity="0.4"/><stop offset="0.09" stop-color="#687ee2" stop-opacity="0.48"/><stop offset="0.26" stop-color="#9563ac" stop-opacity="0.64"/><stop offset="0.43" stop-color="#ba4d7f" stop-opacity="0.77"/><stop offset="0.59" stop-color="#d73c5d" stop-opacity="0.87"/><stop offset="0.74" stop-color="#ec2f43" stop-opacity="0.94"/><stop offset="0.87" stop-color="#f92834" stop-opacity="0.98"/><stop offset="0.97" stop-color="#fd252f"/></linearGradient><linearGradient id="Безымянный_градиент_96" x1="4.87" y1="207.85" x2="413.83" y2="207.85" gradientUnits="userSpaceOnUse"><stop offset="0" stop-color="#6485f6"/><stop offset="0.97" stop-color="#6eabfb"/></linearGradient><linearGradient id="Безымянный_градиент_83" x1="4.87" y1="207.85" x2="413.83" y2="207.85" gradientUnits="userSpaceOnUse"><stop offset="0" stop-color="#4a27c5" stop-opacity="0.4"/><stop offset="0.26" stop-color="#4a27c5" stop-opacity="0.6"/><stop offset="0.59" stop-color="#4a27c5" stop-opacity="0.81"/><stop offset="0.85" stop-color="#4a27c5" stop-opacity="0.95"/><stop offset="1" stop-color="#4a27c5"/></linearGradient></defs><title>pricing_left</title><g class="cls-1"><g id="Слой_2" data-name="Слой 2"><g id="Слой_1-2" data-name="Слой 1"><path class="cls-2" d="M215.27,9.76C62.71,103.9-13.19,109.3,1.88,226.09s282.54,241.1,362.9,111.76S318.21-53.75,215.27,9.76Z"/><path class="cls-3" d="M209.47,380.46C124.62,423-44.38,371.13,18.63,276.94c89.31-133.5,81.06-140.82,95.57-208.6C140-52.29,362.53,83.87,395.8,151.09,449.35,259.3,382.54,293.76,209.47,380.46Z"/><path class="cls-4" d="M209.47,380.46C124.62,423-44.38,371.13,18.63,276.94c89.31-133.5,81.06-140.82,95.57-208.6C140-52.29,362.53,83.87,395.8,151.09,449.35,259.3,382.54,293.76,209.47,380.46Z"/></g></g></g></svg>