<?xml version="1.0" encoding="UTF-8"?>
<svg width="136px" height="62px" viewBox="0 0 136 62" version="1.1" xmlns="http://www.w3.org/2000/svg" xmlns:xlink="http://www.w3.org/1999/xlink">
    <!-- Generator: Sketch 50.2 (55047) - http://www.bohemiancoding.com/sketch -->
    <title>Group 6</title>
    <desc>Created with Sketch.</desc>
    <defs></defs>
    <g id="Voiso_mobile" stroke="none" stroke-width="1" fill="none" fill-rule="evenodd">
        <g id="Voiso_mobile_Main_page" transform="translate(-121.000000, -6782.000000)">
            <g id="Group-6" transform="translate(119.000000, 6782.000000)">
                <path d="M8.29424,15.23232 C4.74608,15.23232 2.2328,12.9936 2.2328,8.85408 L2.2328,0.216 L3.33104,0.216 L3.33104,8.74848 C3.33104,12.23328 5.21072,14.23968 8.33648,14.23968 C11.33552,14.23968 13.25744,12.42336 13.25744,8.85408 L13.25744,0.216 L14.35568,0.216 L14.35568,8.72736 C14.35568,12.97248 11.88464,15.23232 8.29424,15.23232 Z M18.284,18.3792 L18.284,4.2288 L19.31888,4.2288 L19.31888,6.63648 C20.24816,5.22144 21.62096,3.97536 23.75408,3.97536 C26.35184,3.97536 28.99184,6.06624 28.99184,9.6144 C28.99184,13.12032 26.35184,15.25344 23.75408,15.25344 C21.59984,15.25344 20.20592,14.02848 19.31888,12.6768 L19.31888,18.3792 L18.284,18.3792 Z M23.64848,14.2608 C25.9928,14.2608 27.87248,12.55008 27.87248,9.6144 C27.87248,6.78432 25.90832,4.968 23.64848,4.968 C21.40976,4.968 19.25552,6.84768 19.25552,9.63552 C19.25552,12.40224 21.40976,14.2608 23.64848,14.2608 Z M42.1496,15.19008 C40.48112,15.19008 39.12944,14.28192 39.12944,12.23328 L39.12944,5.1792 L37.56656,5.1792 L37.56656,4.2288 L39.12944,4.2288 L39.12944,0.78624 L40.16432,0.78624 L40.16432,4.2288 L43.9448,4.2288 L43.9448,5.1792 L40.16432,5.1792 L40.16432,12.12768 C40.16432,13.66944 41.07248,14.21856 42.31856,14.21856 C42.84656,14.21856 43.29008,14.11296 43.90256,13.8384 L43.90256,14.80992 C43.35344,15.06336 42.82544,15.19008 42.1496,15.19008 Z M51.78032,15.25344 C48.5912,15.25344 46.268,12.6768 46.268,9.6144 C46.268,6.59424 48.61232,3.97536 51.82256,3.97536 C55.01168,3.97536 57.33488,6.552 57.33488,9.6144 C57.33488,12.63456 54.99056,15.25344 51.78032,15.25344 Z M51.82256,14.28192 C54.20912,14.28192 56.21552,12.19104 56.21552,9.6144 C56.21552,7.01664 54.20912,4.94688 51.78032,4.94688 C49.35152,4.94688 47.38736,7.03776 47.38736,9.6144 C47.38736,12.21216 49.3304,14.28192 51.82256,14.28192 Z M71.27408,15.25344 C69.26768,15.25344 67.388,14.17632 66.09968,12.86688 L66.88112,12.08544 C68.21168,13.416 69.75344,14.2608 71.31632,14.2608 C73.66064,14.2608 75.28688,12.61344 75.28688,10.50144 C75.28688,8.4528 73.6184,6.99552 71.23184,6.99552 C69.85904,6.99552 68.82416,7.41792 67.89488,7.9248 L67.05008,7.37568 L67.47248,0.216 L75.77264,0.216 L75.77264,1.272 L68.444,1.272 L68.08496,6.80544 C69.03536,6.3408 69.98576,6.00288 71.35856,6.00288 C74.20976,6.00288 76.42736,7.8192 76.42736,10.50144 C76.42736,13.28928 74.252,15.25344 71.27408,15.25344 Z M90.07088,15.25344 C87.3464,15.25344 85.7624,13.39488 85.7624,10.81824 L85.7624,4.2288 L86.79728,4.2288 L86.79728,10.62816 C86.79728,12.84576 88.04336,14.30304 90.21872,14.30304 C92.33072,14.30304 93.95696,12.69792 93.95696,10.4592 L93.95696,4.2288 L94.99184,4.2288 L94.99184,15 L93.95696,15 L93.95696,12.9936 C93.23888,14.2608 92.03504,15.25344 90.07088,15.25344 Z M102.40496,15.2112 C100.84208,15.2112 99.13136,14.5776 97.99088,13.64832 L98.60336,12.82464 C99.78608,13.7328 101.09552,14.23968 102.46832,14.23968 C103.9256,14.23968 105.06608,13.43712 105.06608,12.1488 C105.06608,10.8816 103.7144,10.41696 102.21488,9.99456 C100.46192,9.48768 98.51888,8.95968 98.51888,6.99552 C98.51888,5.26368 99.97616,4.0176 102.06704,4.0176 C103.35536,4.0176 104.81264,4.48224 105.88976,5.20032 L105.34064,6.06624 C104.348,5.41152 103.16528,4.98912 102.0248,4.98912 C100.5464,4.98912 99.57488,5.79168 99.57488,6.91104 C99.57488,8.11488 101.03216,8.5584 102.57392,9.00192 C104.30576,9.48768 106.12208,10.12128 106.12208,12.06432 C106.12208,13.98624 104.47472,15.2112 102.40496,15.2112 Z M113.9576,15.25344 C111.12752,15.25344 108.6776,12.9936 108.6776,9.59328 C108.6776,6.46752 110.87408,3.97536 113.78864,3.97536 C116.8088,3.97536 118.73072,6.42528 118.73072,9.6144 C118.73072,9.80448 118.73072,9.86784 118.7096,10.0368 L109.77584,10.0368 C109.96592,12.71904 111.88784,14.28192 113.99984,14.28192 C115.66832,14.28192 116.8088,13.54272 117.69584,12.59232 L118.41392,13.22592 C117.31568,14.40864 116.02736,15.25344 113.9576,15.25344 Z M109.77584,9.10752 L117.61136,9.10752 C117.46352,6.93216 116.21744,4.92576 113.7464,4.92576 C111.61328,4.92576 109.96592,6.72096 109.77584,9.10752 Z M121.75088,15 L121.75088,4.2288 L122.78576,4.2288 L122.78576,7.2912 C123.63056,5.36928 125.42576,3.97536 127.55888,4.05984 L127.55888,5.20032 L127.45328,5.20032 C124.96112,5.20032 122.78576,7.08 122.78576,10.58592 L122.78576,15 L121.75088,15 Z M133.68368,15.2112 C132.1208,15.2112 130.41008,14.5776 129.2696,13.64832 L129.88208,12.82464 C131.0648,13.7328 132.37424,14.23968 133.74704,14.23968 C135.20432,14.23968 136.3448,13.43712 136.3448,12.1488 C136.3448,10.8816 134.99312,10.41696 133.4936,9.99456 C131.74064,9.48768 129.7976,8.95968 129.7976,6.99552 C129.7976,5.26368 131.25488,4.0176 133.34576,4.0176 C134.63408,4.0176 136.09136,4.48224 137.16848,5.20032 L136.61936,6.06624 C135.62672,5.41152 134.444,4.98912 133.30352,4.98912 C131.82512,4.98912 130.8536,5.79168 130.8536,6.91104 C130.8536,8.11488 132.31088,8.5584 133.85264,9.00192 C135.58448,9.48768 137.4008,10.12128 137.4008,12.06432 C137.4008,13.98624 135.75344,15.2112 133.68368,15.2112 Z" id="Up-to-5-users-Copy" fill="#442BC0"></path>
                <path d="M17.46768,62 L17.46768,32.432 L38.292,32.432 L38.292,34.45952 L19.66416,34.45952 L19.66416,46.5824 L36.3912,46.5824 L36.3912,48.60992 L19.66416,48.60992 L19.66416,62 L17.46768,62 Z M45.17712,62 L45.17712,32.432 L57.59568,32.432 C61.22832,32.432 64.14288,33.57248 65.91696,35.34656 C67.31088,36.74048 68.15568,38.72576 68.15568,40.92224 C68.15568,45.86432 64.4808,48.6944 59.49648,49.37024 L69.25392,62 L66.46608,62 L57.04656,49.7504 L47.3736,49.7504 L47.3736,62 L45.17712,62 Z M47.3736,47.76512 L57.34224,47.76512 C62.28432,47.76512 65.9592,45.27296 65.9592,40.92224 C65.9592,36.95168 62.83344,34.45952 57.46896,34.45952 L47.3736,34.45952 L47.3736,47.76512 Z M75.71664,62 L75.71664,32.432 L96.75216,32.432 L96.75216,34.45952 L77.91312,34.45952 L77.91312,46.07552 L94.85136,46.07552 L94.85136,48.10304 L77.91312,48.10304 L77.91312,59.97248 L96.96336,59.97248 L96.96336,62 L75.71664,62 Z M104.01744,62 L104.01744,32.432 L125.05296,32.432 L125.05296,34.45952 L106.21392,34.45952 L106.21392,46.07552 L123.15216,46.07552 L123.15216,48.10304 L106.21392,48.10304 L106.21392,59.97248 L125.26416,59.97248 L125.26416,62 L104.01744,62 Z" id="FREE-Copy" fill="#000000"></path>
            </g>
        </g>
    </g>
</svg>