<?xml version="1.0" encoding="UTF-8"?>
<svg width="113px" height="106px" viewBox="0 0 113 106" version="1.1" xmlns="http://www.w3.org/2000/svg" xmlns:xlink="http://www.w3.org/1999/xlink">
    <!-- Generator: Sketch 51.2 (57519) - http://www.bohemiancoding.com/sketch -->
    <title>Group 6</title>
    <desc>Created with Sketch.</desc>
    <defs></defs>
    <g id="Voiso_mobile" stroke="none" stroke-width="1" fill="none" fill-rule="evenodd">
        <g id="Voiso_mobile_Main_page" transform="translate(-132.000000, -6950.000000)">
            <g id="Group-6" transform="translate(132.000000, 6950.000000)">
                <path d="M18.42384,16.25344 C16.9032,16.25344 15.55152,15.66208 14.66448,14.77504 C13.43952,13.55008 12.7848,12.07168 12.7848,8.96704 C12.7848,4.51072 15.12912,0.96256 18.804,0.96256 C20.4936,0.96256 21.78192,1.61728 23.07024,2.67328 L22.37328,3.51808 C21.2328,2.50432 20.11344,1.9552 18.71952,1.9552 C15.80496,1.9552 13.88304,4.93312 13.88304,9.26272 L13.88304,9.62176 C14.72784,8.1856 16.10064,6.87616 18.50832,6.87616 C21.19056,6.87616 23.59824,8.7136 23.59824,11.39584 C23.59824,14.18368 21.3384,16.25344 18.42384,16.25344 Z M18.50832,15.2608 C20.89488,15.2608 22.45776,13.52896 22.45776,11.39584 C22.45776,9.36832 20.78928,7.84768 18.44496,7.84768 C16.01616,7.84768 14.32656,9.68512 14.32656,11.54368 C14.32656,13.65568 16.12176,15.2608 18.50832,15.2608 Z M31.22256,13.61344 L31.22256,9.07264 L26.63952,9.07264 L26.63952,8.05888 L31.22256,8.05888 L31.22256,3.51808 L32.27856,3.51808 L32.27856,8.05888 L36.8616,8.05888 L36.8616,9.07264 L32.27856,9.07264 L32.27856,13.61344 L31.22256,13.61344 Z M50.9064,16.25344 C48.18192,16.25344 46.59792,14.39488 46.59792,11.81824 L46.59792,5.2288 L47.6328,5.2288 L47.6328,11.62816 C47.6328,13.84576 48.87888,15.30304 51.05424,15.30304 C53.16624,15.30304 54.79248,13.69792 54.79248,11.4592 L54.79248,5.2288 L55.82736,5.2288 L55.82736,16 L54.79248,16 L54.79248,13.9936 C54.0744,15.2608 52.87056,16.25344 50.9064,16.25344 Z M63.24048,16.2112 C61.6776,16.2112 59.96688,15.5776 58.8264,14.64832 L59.43888,13.82464 C60.6216,14.7328 61.93104,15.23968 63.30384,15.23968 C64.76112,15.23968 65.9016,14.43712 65.9016,13.1488 C65.9016,11.8816 64.54992,11.41696 63.0504,10.99456 C61.29744,10.48768 59.3544,9.95968 59.3544,7.99552 C59.3544,6.26368 60.81168,5.0176 62.90256,5.0176 C64.19088,5.0176 65.64816,5.48224 66.72528,6.20032 L66.17616,7.06624 C65.18352,6.41152 64.0008,5.98912 62.86032,5.98912 C61.38192,5.98912 60.4104,6.79168 60.4104,7.91104 C60.4104,9.11488 61.86768,9.5584 63.40944,10.00192 C65.14128,10.48768 66.9576,11.12128 66.9576,13.06432 C66.9576,14.98624 65.31024,16.2112 63.24048,16.2112 Z M74.79312,16.25344 C71.96304,16.25344 69.51312,13.9936 69.51312,10.59328 C69.51312,7.46752 71.7096,4.97536 74.62416,4.97536 C77.64432,4.97536 79.56624,7.42528 79.56624,10.6144 C79.56624,10.80448 79.56624,10.86784 79.54512,11.0368 L70.61136,11.0368 C70.80144,13.71904 72.72336,15.28192 74.83536,15.28192 C76.50384,15.28192 77.64432,14.54272 78.53136,13.59232 L79.24944,14.22592 C78.1512,15.40864 76.86288,16.25344 74.79312,16.25344 Z M70.61136,10.10752 L78.44688,10.10752 C78.29904,7.93216 77.05296,5.92576 74.58192,5.92576 C72.4488,5.92576 70.80144,7.72096 70.61136,10.10752 Z M82.5864,16 L82.5864,5.2288 L83.62128,5.2288 L83.62128,8.2912 C84.46608,6.36928 86.26128,4.97536 88.3944,5.05984 L88.3944,6.20032 L88.2888,6.20032 C85.79664,6.20032 83.62128,8.08 83.62128,11.58592 L83.62128,16 L82.5864,16 Z M94.5192,16.2112 C92.95632,16.2112 91.2456,15.5776 90.10512,14.64832 L90.7176,13.82464 C91.90032,14.7328 93.20976,15.23968 94.58256,15.23968 C96.03984,15.23968 97.18032,14.43712 97.18032,13.1488 C97.18032,11.8816 95.82864,11.41696 94.32912,10.99456 C92.57616,10.48768 90.63312,9.95968 90.63312,7.99552 C90.63312,6.26368 92.0904,5.0176 94.18128,5.0176 C95.4696,5.0176 96.92688,5.48224 98.004,6.20032 L97.45488,7.06624 C96.46224,6.41152 95.27952,5.98912 94.13904,5.98912 C92.66064,5.98912 91.68912,6.79168 91.68912,7.91104 C91.68912,9.11488 93.1464,9.5584 94.68816,10.00192 C96.42,10.48768 98.23632,11.12128 98.23632,13.06432 C98.23632,14.98624 96.58896,16.2112 94.5192,16.2112 Z" id="6+-users-copy" fill="#442BC0"></path>
                <path d="M0.3871845,58 L0.3871845,41.9 L12.3241845,41.9 L12.3241845,44.43 L3.2161845,44.43 L3.2161845,48.616 L11.2891845,48.616 L11.2891845,51.146 L3.2161845,51.146 L3.2161845,55.47 L12.4391845,55.47 L12.4391845,58 L0.3871845,58 Z M15.0092476,58 L15.0092476,45.856 L17.7922476,45.856 L17.7922476,47.742 C18.5742476,46.592 19.7012476,45.603 21.5872476,45.603 C24.3242476,45.603 25.9112476,47.443 25.9112476,50.272 L25.9112476,58 L23.1282476,58 L23.1282476,51.1 C23.1282476,49.214 22.1852476,48.133 20.5292476,48.133 C18.9192476,48.133 17.7922476,49.26 17.7922476,51.146 L17.7922476,58 L15.0092476,58 Z M32.8743107,58.207 C30.8273107,58.207 29.3783107,57.31 29.3783107,54.642 L29.3783107,48.248 L27.8373107,48.248 L27.8373107,45.856 L29.3783107,45.856 L29.3783107,42.521 L32.1613107,42.521 L32.1613107,45.856 L35.4273107,45.856 L35.4273107,48.248 L32.1613107,48.248 L32.1613107,54.205 C32.1613107,55.286 32.7133107,55.723 33.6563107,55.723 C34.2773107,55.723 34.8293107,55.585 35.3813107,55.309 L35.3813107,57.586 C34.6913107,57.977 33.9093107,58.207 32.8743107,58.207 Z M42.9883738,58.276 C39.4693738,58.276 36.7553738,55.723 36.7553738,51.974 L36.7553738,51.928 C36.7553738,48.455 39.2163738,45.603 42.6893738,45.603 C46.5533738,45.603 48.5083738,48.639 48.5083738,52.135 C48.5083738,52.388 48.4853738,52.641 48.4623738,52.917 L39.5383738,52.917 C39.8373738,54.895 41.2403738,55.999 43.0343738,55.999 C44.3913738,55.999 45.3573738,55.493 46.3233738,54.55 L47.9563738,55.999 C46.8063738,57.379 45.2193738,58.276 42.9883738,58.276 Z M39.5153738,51.077 L45.7483738,51.077 C45.5643738,49.283 44.5063738,47.88 42.6663738,47.88 C40.9643738,47.88 39.7683738,49.191 39.5153738,51.077 Z M50.8484369,58 L50.8484369,45.856 L53.6314369,45.856 L53.6314369,48.593 C54.3904369,46.776 55.7934369,45.534 57.9324369,45.626 L57.9324369,48.57 L57.7714369,48.57 C55.3334369,48.57 53.6314369,50.157 53.6314369,53.377 L53.6314369,58 L50.8484369,58 Z M59.8815,61.68 L59.8815,45.856 L62.6645,45.856 L62.6645,47.88 C63.5615,46.615 64.8265,45.603 66.7815,45.603 C69.6565,45.603 72.4395,47.88 72.4395,51.905 L72.4395,51.951 C72.4395,55.976 69.6795,58.253 66.7815,58.253 C64.7805,58.253 63.5155,57.241 62.6645,56.114 L62.6645,61.68 L59.8815,61.68 Z M66.1375,55.838 C68.0465,55.838 69.6105,54.343 69.6105,51.951 L69.6105,51.905 C69.6105,49.559 68.0235,48.018 66.1375,48.018 C64.2515,48.018 62.5955,49.582 62.5955,51.905 L62.5955,51.951 C62.5955,54.297 64.2515,55.838 66.1375,55.838 Z M74.8255631,58 L74.8255631,45.856 L77.6085631,45.856 L77.6085631,48.593 C78.3675631,46.776 79.7705631,45.534 81.9095631,45.626 L81.9095631,48.57 L81.7485631,48.57 C79.3105631,48.57 77.6085631,50.157 77.6085631,53.377 L77.6085631,58 L74.8255631,58 Z M83.9046262,43.993 L83.9046262,41.348 L86.8946262,41.348 L86.8946262,43.993 L83.9046262,43.993 Z M84.0196262,58 L84.0196262,45.856 L86.8026262,45.856 L86.8026262,58 L84.0196262,58 Z M94.1336893,58.23 C92.4086893,58.23 90.4996893,57.609 88.9816893,56.413 L90.2236893,54.527 C91.5346893,55.516 92.9606893,56.022 94.2026893,56.022 C95.3986893,56.022 96.0886893,55.516 96.0886893,54.711 L96.0886893,54.665 C96.0886893,53.722 94.8006893,53.4 93.3746893,52.963 C91.5806893,52.457 89.5796893,51.721 89.5796893,49.398 L89.5796893,49.352 C89.5796893,47.052 91.4886893,45.649 93.9036893,45.649 C95.4216893,45.649 97.0776893,46.178 98.3656893,47.029 L97.2616893,49.007 C96.0886893,48.294 94.8466893,47.857 93.8346893,47.857 C92.7536893,47.857 92.1326893,48.363 92.1326893,49.076 L92.1326893,49.122 C92.1326893,49.996 93.4436893,50.364 94.8696893,50.824 C96.6406893,51.376 98.6416893,52.181 98.6416893,54.366 L98.6416893,54.412 C98.6416893,56.965 96.6636893,58.23 94.1336893,58.23 Z M106.570752,58.276 C103.051752,58.276 100.337752,55.723 100.337752,51.974 L100.337752,51.928 C100.337752,48.455 102.798752,45.603 106.271752,45.603 C110.135752,45.603 112.090752,48.639 112.090752,52.135 C112.090752,52.388 112.067752,52.641 112.044752,52.917 L103.120752,52.917 C103.419752,54.895 104.822752,55.999 106.616752,55.999 C107.973752,55.999 108.939752,55.493 109.905752,54.55 L111.538752,55.999 C110.388752,57.379 108.801752,58.276 106.570752,58.276 Z M103.097752,51.077 L109.330752,51.077 C109.146752,49.283 108.088752,47.88 106.248752,47.88 C104.546752,47.88 103.350752,49.191 103.097752,51.077 Z" id="Enterprise" fill="#000000"></path>
                <g id="Group-12-Copy" transform="translate(1.000000, 71.000000)" fill="#000000">
                    <path d="M30.07808,31 L30.07808,23.77696 L14.06912,23.77696 L13.3088,22.1296 L30.2048,1.2208 L32.19008,1.2208 L32.19008,21.87616 L37.00544,21.87616 L37.00544,23.77696 L32.19008,23.77696 L32.19008,31 L30.07808,31 Z M15.96992,21.87616 L30.07808,21.87616 L30.07808,4.3888 L15.96992,21.87616 Z M51.70496,31.50688 C48.03008,31.50688 45.24224,29.90176 42.79232,27.832 L44.18624,26.1424 C46.6784,28.38112 49.04384,29.5216 51.7472,29.5216 C57.49184,29.5216 61.54688,23.65024 61.54688,15.28672 L61.54688,14.27296 C59.85728,17.31424 56.98496,19.97536 52.33856,19.97536 C46.38272,19.97536 42.11648,16.0048 42.11648,10.85152 C42.11648,5.40256 46.34048,0.92512 52.50752,0.92512 C55.67552,0.92512 58.25216,2.15008 60.02624,3.92416 C62.3072,6.20512 63.74336,9.54208 63.74336,15.54016 C63.74336,24.83296 58.59008,31.50688 51.70496,31.50688 Z M52.42304,18.03232 C57.4496,18.03232 60.65984,14.23072 60.65984,10.42912 C60.65984,6.24736 57.15392,2.9104 52.25408,2.9104 C47.39648,2.9104 44.39744,6.66976 44.39744,10.85152 C44.39744,14.99104 47.7344,18.03232 52.42304,18.03232 Z" id="49"></path>
                    <path d="M6.294848,22.9342126 L6.294848,21.0524206 C4.56512,20.9003566 3.158528,20.2350766 1.789952,19.0185646 L2.417216,18.2772526 C3.595712,19.3797166 4.793216,20.0449966 6.332864,20.1780526 L6.332864,14.7797806 C3.481664,14.1525166 2.303168,13.1070766 2.303168,11.1872686 C2.303168,9.28646857 3.975872,7.82285257 6.294848,7.76582857 L6.294848,6.66336457 L7.207232,6.66336457 L7.207232,7.80384457 C8.670848,7.91789257 9.754304,8.45011657 10.875776,9.36250057 L10.248512,10.1038126 C9.260096,9.22944457 8.27168,8.79226057 7.169216,8.65920457 L7.169216,14.0004526 C10.058432,14.6087086 11.274944,15.6921646 11.274944,17.5739566 C11.274944,19.5697966 9.60224,20.9763886 7.207232,21.0714286 L7.207232,22.9342126 L6.294848,22.9342126 Z M7.169216,20.2160686 C9.070016,20.1590446 10.305536,19.0755886 10.305536,17.6119726 C10.305536,16.3194286 9.678272,15.5401006 7.169216,14.9698606 L7.169216,20.2160686 Z M6.332864,13.8103726 L6.332864,8.62118857 C4.489088,8.65920457 3.272576,9.76166857 3.272576,11.1492526 C3.272576,12.3847726 3.861824,13.2021166 6.332864,13.8103726 Z" id="$"></path>
                    <path d="M64.147072,34.1587383 L73.118848,16.5573303 L74.05024,16.5573303 L65.078464,34.1587383 L64.147072,34.1587383 Z M75.76096,31.7257143 L75.76096,22.0316343 L76.692352,22.0316343 L76.692352,23.7613623 C77.319616,22.7539383 78.193984,21.8035383 79.923712,21.8035383 C81.615424,21.8035383 82.660864,22.7729463 83.193088,23.8944183 C83.820352,22.8109623 84.865792,21.8035383 86.69056,21.8035383 C88.990528,21.8035383 90.416128,23.4192183 90.416128,25.8522423 L90.416128,31.7257143 L89.484736,31.7257143 L89.484736,25.9662903 C89.484736,23.8754103 88.40128,22.6588983 86.614528,22.6588983 C84.97984,22.6588983 83.55424,23.9134263 83.55424,26.0803383 L83.55424,31.7257143 L82.622848,31.7257143 L82.622848,25.9092663 C82.622848,23.8944183 81.520384,22.6588983 79.790656,22.6588983 C78.060928,22.6588983 76.692352,24.1795383 76.692352,26.1373623 L76.692352,31.7257143 L75.76096,31.7257143 Z M98.133376,31.9538103 C95.263168,31.9538103 93.172288,29.6348343 93.172288,26.8786743 C93.172288,24.1605303 95.282176,21.8035383 98.171392,21.8035383 C101.0416,21.8035383 103.13248,24.1225143 103.13248,26.8786743 C103.13248,29.5968183 101.022592,31.9538103 98.133376,31.9538103 Z M98.171392,31.0794423 C100.319296,31.0794423 102.125056,29.1976503 102.125056,26.8786743 C102.125056,24.5406903 100.319296,22.6779063 98.133376,22.6779063 C95.947456,22.6779063 94.179712,24.5596983 94.179712,26.8786743 C94.179712,29.2166583 95.928448,31.0794423 98.171392,31.0794423 Z M105.7936,31.7257143 L105.7936,30.1100343 L107.048128,30.1100343 L107.048128,31.7257143 L105.7936,31.7257143 Z" id="/mo."></path>
                </g>
            </g>
        </g>
    </g>
</svg>