<?xml version="1.0" encoding="UTF-8"?>
<svg width="107px" height="60px" viewBox="0 0 107 60" version="1.1" xmlns="http://www.w3.org/2000/svg" xmlns:xlink="http://www.w3.org/1999/xlink">
    <!-- Generator: Sketch 50.2 (55047) - http://www.bohemiancoding.com/sketch -->
    <title>Group 8</title>
    <desc>Created with Sketch.</desc>
    <defs></defs>
    <g id="Voiso_mobile" stroke="none" stroke-width="1" fill="none" fill-rule="evenodd">
        <g id="Voiso_mobile_Main_page" transform="translate(-134.000000, -6962.000000)">
            <g id="Group-8" transform="translate(133.000000, 6963.000000)">
                <path d="M17.42384,15.25344 C15.9032,15.25344 14.55152,14.66208 13.66448,13.77504 C12.43952,12.55008 11.7848,11.07168 11.7848,7.96704 C11.7848,3.51072 14.12912,-0.03744 17.804,-0.03744 C19.4936,-0.03744 20.78192,0.61728 22.07024,1.67328 L21.37328,2.51808 C20.2328,1.50432 19.11344,0.9552 17.71952,0.9552 C14.80496,0.9552 12.88304,3.93312 12.88304,8.26272 L12.88304,8.62176 C13.72784,7.1856 15.10064,5.87616 17.50832,5.87616 C20.19056,5.87616 22.59824,7.7136 22.59824,10.39584 C22.59824,13.18368 20.3384,15.25344 17.42384,15.25344 Z M17.50832,14.2608 C19.89488,14.2608 21.45776,12.52896 21.45776,10.39584 C21.45776,8.36832 19.78928,6.84768 17.44496,6.84768 C15.01616,6.84768 13.32656,8.68512 13.32656,10.54368 C13.32656,12.65568 15.12176,14.2608 17.50832,14.2608 Z M30.22256,12.61344 L30.22256,8.07264 L25.63952,8.07264 L25.63952,7.05888 L30.22256,7.05888 L30.22256,2.51808 L31.27856,2.51808 L31.27856,7.05888 L35.8616,7.05888 L35.8616,8.07264 L31.27856,8.07264 L31.27856,12.61344 L30.22256,12.61344 Z M49.9064,15.25344 C47.18192,15.25344 45.59792,13.39488 45.59792,10.81824 L45.59792,4.2288 L46.6328,4.2288 L46.6328,10.62816 C46.6328,12.84576 47.87888,14.30304 50.05424,14.30304 C52.16624,14.30304 53.79248,12.69792 53.79248,10.4592 L53.79248,4.2288 L54.82736,4.2288 L54.82736,15 L53.79248,15 L53.79248,12.9936 C53.0744,14.2608 51.87056,15.25344 49.9064,15.25344 Z M62.24048,15.2112 C60.6776,15.2112 58.96688,14.5776 57.8264,13.64832 L58.43888,12.82464 C59.6216,13.7328 60.93104,14.23968 62.30384,14.23968 C63.76112,14.23968 64.9016,13.43712 64.9016,12.1488 C64.9016,10.8816 63.54992,10.41696 62.0504,9.99456 C60.29744,9.48768 58.3544,8.95968 58.3544,6.99552 C58.3544,5.26368 59.81168,4.0176 61.90256,4.0176 C63.19088,4.0176 64.64816,4.48224 65.72528,5.20032 L65.17616,6.06624 C64.18352,5.41152 63.0008,4.98912 61.86032,4.98912 C60.38192,4.98912 59.4104,5.79168 59.4104,6.91104 C59.4104,8.11488 60.86768,8.5584 62.40944,9.00192 C64.14128,9.48768 65.9576,10.12128 65.9576,12.06432 C65.9576,13.98624 64.31024,15.2112 62.24048,15.2112 Z M73.79312,15.25344 C70.96304,15.25344 68.51312,12.9936 68.51312,9.59328 C68.51312,6.46752 70.7096,3.97536 73.62416,3.97536 C76.64432,3.97536 78.56624,6.42528 78.56624,9.6144 C78.56624,9.80448 78.56624,9.86784 78.54512,10.0368 L69.61136,10.0368 C69.80144,12.71904 71.72336,14.28192 73.83536,14.28192 C75.50384,14.28192 76.64432,13.54272 77.53136,12.59232 L78.24944,13.22592 C77.1512,14.40864 75.86288,15.25344 73.79312,15.25344 Z M69.61136,9.10752 L77.44688,9.10752 C77.29904,6.93216 76.05296,4.92576 73.58192,4.92576 C71.4488,4.92576 69.80144,6.72096 69.61136,9.10752 Z M81.5864,15 L81.5864,4.2288 L82.62128,4.2288 L82.62128,7.2912 C83.46608,5.36928 85.26128,3.97536 87.3944,4.05984 L87.3944,5.20032 L87.2888,5.20032 C84.79664,5.20032 82.62128,7.08 82.62128,10.58592 L82.62128,15 L81.5864,15 Z M93.5192,15.2112 C91.95632,15.2112 90.2456,14.5776 89.10512,13.64832 L89.7176,12.82464 C90.90032,13.7328 92.20976,14.23968 93.58256,14.23968 C95.03984,14.23968 96.18032,13.43712 96.18032,12.1488 C96.18032,10.8816 94.82864,10.41696 93.32912,9.99456 C91.57616,9.48768 89.63312,8.95968 89.63312,6.99552 C89.63312,5.26368 91.0904,4.0176 93.18128,4.0176 C94.4696,4.0176 95.92688,4.48224 97.004,5.20032 L96.45488,6.06624 C95.46224,5.41152 94.27952,4.98912 93.13904,4.98912 C91.66064,4.98912 90.68912,5.79168 90.68912,6.91104 C90.68912,8.11488 92.1464,8.5584 93.68816,9.00192 C95.42,9.48768 97.23632,10.12128 97.23632,12.06432 C97.23632,13.98624 95.58896,15.2112 93.5192,15.2112 Z" id="6+-users-copy" fill="#442BC0"></path>
                <g id="Group-12-Copy" transform="translate(0.000000, 24.000000)" fill="#000000">
                    <path d="M23.84768,31.50688 C19.83488,31.50688 16.07552,29.35264 13.49888,26.73376 L15.06176,25.17088 C17.72288,27.832 20.8064,29.5216 23.93216,29.5216 C28.6208,29.5216 31.87328,26.22688 31.87328,22.00288 C31.87328,17.9056 28.53632,14.99104 23.7632,14.99104 C21.0176,14.99104 18.94784,15.83584 17.08928,16.8496 L15.39968,15.75136 L16.24448,1.432 L32.8448,1.432 L32.8448,3.544 L18.18752,3.544 L17.46944,14.61088 C19.37024,13.6816 21.27104,13.00576 24.01664,13.00576 C29.71904,13.00576 34.15424,16.6384 34.15424,22.00288 C34.15424,27.57856 29.80352,31.50688 23.84768,31.50688 Z M51.59936,31.50688 C44.08064,31.50688 39.392,24.4528 39.392,16.216 C39.392,8.06368 44.16512,0.92512 51.68384,0.92512 C59.20256,0.92512 63.8912,7.9792 63.8912,16.216 C63.8912,24.36832 59.11808,31.50688 51.59936,31.50688 Z M51.68384,29.5216 C57.80864,29.5216 61.61024,23.14336 61.61024,16.216 C61.61024,9.33088 57.72416,2.9104 51.59936,2.9104 C45.47456,2.9104 41.67296,9.2464 41.67296,16.216 C41.67296,23.05888 45.55904,29.5216 51.68384,29.5216 Z" id="50"></path>
                    <path d="M6.294848,22.9342126 L6.294848,21.0524206 C4.56512,20.9003566 3.158528,20.2350766 1.789952,19.0185646 L2.417216,18.2772526 C3.595712,19.3797166 4.793216,20.0449966 6.332864,20.1780526 L6.332864,14.7797806 C3.481664,14.1525166 2.303168,13.1070766 2.303168,11.1872686 C2.303168,9.28646857 3.975872,7.82285257 6.294848,7.76582857 L6.294848,6.66336457 L7.207232,6.66336457 L7.207232,7.80384457 C8.670848,7.91789257 9.754304,8.45011657 10.875776,9.36250057 L10.248512,10.1038126 C9.260096,9.22944457 8.27168,8.79226057 7.169216,8.65920457 L7.169216,14.0004526 C10.058432,14.6087086 11.274944,15.6921646 11.274944,17.5739566 C11.274944,19.5697966 9.60224,20.9763886 7.207232,21.0714286 L7.207232,22.9342126 L6.294848,22.9342126 Z M7.169216,20.2160686 C9.070016,20.1590446 10.305536,19.0755886 10.305536,17.6119726 C10.305536,16.3194286 9.678272,15.5401006 7.169216,14.9698606 L7.169216,20.2160686 Z M6.332864,13.8103726 L6.332864,8.62118857 C4.489088,8.65920457 3.272576,9.76166857 3.272576,11.1492526 C3.272576,12.3847726 3.861824,13.2021166 6.332864,13.8103726 Z" id="$"></path>
                    <path d="M64.147072,34.1587383 L73.118848,16.5573303 L74.05024,16.5573303 L65.078464,34.1587383 L64.147072,34.1587383 Z M75.76096,31.7257143 L75.76096,22.0316343 L76.692352,22.0316343 L76.692352,23.7613623 C77.319616,22.7539383 78.193984,21.8035383 79.923712,21.8035383 C81.615424,21.8035383 82.660864,22.7729463 83.193088,23.8944183 C83.820352,22.8109623 84.865792,21.8035383 86.69056,21.8035383 C88.990528,21.8035383 90.416128,23.4192183 90.416128,25.8522423 L90.416128,31.7257143 L89.484736,31.7257143 L89.484736,25.9662903 C89.484736,23.8754103 88.40128,22.6588983 86.614528,22.6588983 C84.97984,22.6588983 83.55424,23.9134263 83.55424,26.0803383 L83.55424,31.7257143 L82.622848,31.7257143 L82.622848,25.9092663 C82.622848,23.8944183 81.520384,22.6588983 79.790656,22.6588983 C78.060928,22.6588983 76.692352,24.1795383 76.692352,26.1373623 L76.692352,31.7257143 L75.76096,31.7257143 Z M98.133376,31.9538103 C95.263168,31.9538103 93.172288,29.6348343 93.172288,26.8786743 C93.172288,24.1605303 95.282176,21.8035383 98.171392,21.8035383 C101.0416,21.8035383 103.13248,24.1225143 103.13248,26.8786743 C103.13248,29.5968183 101.022592,31.9538103 98.133376,31.9538103 Z M98.171392,31.0794423 C100.319296,31.0794423 102.125056,29.1976503 102.125056,26.8786743 C102.125056,24.5406903 100.319296,22.6779063 98.133376,22.6779063 C95.947456,22.6779063 94.179712,24.5596983 94.179712,26.8786743 C94.179712,29.2166583 95.928448,31.0794423 98.171392,31.0794423 Z M105.7936,31.7257143 L105.7936,30.1100343 L107.048128,30.1100343 L107.048128,31.7257143 L105.7936,31.7257143 Z" id="/mo."></path>
                </g>
            </g>
        </g>
    </g>
</svg>