<?xml version="1.0" encoding="UTF-8"?>
<svg width="264px" height="286px" viewBox="0 0 264 286" version="1.1" xmlns="http://www.w3.org/2000/svg" xmlns:xlink="http://www.w3.org/1999/xlink">
    <!-- Generator: Sketch 51.2 (57519) - http://www.bohemiancoding.com/sketch -->
    <title>Group 12</title>
    <desc>Created with Sketch.</desc>
    <defs>
        <linearGradient x1="78.7777204%" y1="13.6434189%" x2="31.7732682%" y2="87.5701434%" id="linearGradient-1">
            <stop stop-color="#508CFF" stop-opacity="0.4" offset="0%"></stop>
            <stop stop-color="#687EE2" stop-opacity="0.48" offset="9%"></stop>
            <stop stop-color="#9563AC" stop-opacity="0.64" offset="26%"></stop>
            <stop stop-color="#BA4D7F" stop-opacity="0.77" offset="43%"></stop>
            <stop stop-color="#D73C5D" stop-opacity="0.87" offset="59%"></stop>
            <stop stop-color="#EC2F43" stop-opacity="0.94" offset="74%"></stop>
            <stop stop-color="#F92834" stop-opacity="0.98" offset="87%"></stop>
            <stop stop-color="#FD252F" offset="97%"></stop>
        </linearGradient>
        <linearGradient x1="0.00126792555%" y1="50.000081%" x2="97.0011007%" y2="50.000081%" id="linearGradient-2">
            <stop stop-color="#6485F6" offset="0%"></stop>
            <stop stop-color="#6EABFB" offset="100%"></stop>
        </linearGradient>
        <linearGradient x1="6.69922365%" y1="74.9964191%" x2="93.30193%" y2="24.9963233%" id="linearGradient-3">
            <stop stop-color="#4A27C5" stop-opacity="0.4" offset="0%"></stop>
            <stop stop-color="#4A27C5" stop-opacity="0.6" offset="26%"></stop>
            <stop stop-color="#4A27C5" stop-opacity="0.81" offset="59%"></stop>
            <stop stop-color="#4A27C5" stop-opacity="0.95" offset="85%"></stop>
            <stop stop-color="#4A27C5" offset="100%"></stop>
        </linearGradient>
    </defs>
    <g id="Voiso" stroke="none" stroke-width="1" fill="none" fill-rule="evenodd">
        <g id="Voiso_desktop-Copy" transform="translate(-588.000000, -7034.000000)">
            <g id="Group-12" transform="translate(588.000000, 7034.000000)">
                <g id="pricing_right" fill-rule="nonzero">
                    <path d="M137.287463,6.76263364 C40.0306536,66.7824535 -8.35523074,70.2032723 1.2522993,144.696265 C10.8598293,219.189258 181.376387,298.465178 232.622765,215.967469 C283.869144,133.46976 202.917153,-33.7336407 137.287463,6.76263364 Z" id="Shape" fill="url(#linearGradient-1)"></path>
                    <path d="M175.165039,263.878906 C132.764648,298.552734 13.9092845,296.702419 20.0381962,221.677089 C28.7270179,115.69257 20.0642378,112.133139 3.0412369,63.4063576 C-27.2716706,-24.225947 181.880545,34.7213562 231.894069,73.7615158 C312.399945,134.741879 217.56543,229.205078 175.165039,263.878906 Z" id="Shape" fill="url(#linearGradient-2)" style="mix-blend-mode: multiply;"></path>
                    <path d="M175.165039,263.878906 C132.764648,298.552734 13.9092845,296.702419 20.0381962,221.677089 C28.7270179,115.69257 20.0642378,112.133139 3.0412369,63.4063576 C-27.2716706,-24.225947 181.880545,34.7213562 231.894069,73.7615158 C312.399945,134.741879 217.56543,229.205078 175.165039,263.878906 Z" id="Shape" fill="url(#linearGradient-3)"></path>
                </g>
                <path d="M69.2995155,208.058426 L69.2995155,203.958587 C65.5309771,203.627287 62.4664513,202.17785 59.4847506,199.527449 L60.8513634,197.912361 C63.418939,200.355699 65.9865147,201.763724 69.3823405,202.095025 L69.3823405,190.292459 C63.170464,188.925846 60.6028884,186.648158 60.6028884,182.506907 C60.6028884,178.324244 64.2471893,175.135481 69.2995155,175.011243 L69.2995155,172.609317 L71.2873159,172.609317 L71.2873159,175.094068 C74.4760792,175.383956 76.7951798,176.502093 79.2799304,178.489894 L77.9133176,180.104982 C75.7184545,178.200006 73.6064165,177.247519 71.2044909,176.957631 L71.2044909,188.594546 C77.4991924,189.919747 80.1495931,192.28026 80.1495931,196.338686 C80.1495931,200.728412 76.4638797,203.83435 71.2873159,204 L71.2873159,208.058426 L69.2995155,208.058426 Z M78.0375551,196.504336 C78.0375551,193.688285 76.6709422,191.94896 71.2044909,190.706584 L71.2044909,202.136437 C75.3457419,202.053612 78.0375551,199.651686 78.0375551,196.504336 Z M62.7149264,182.341257 C62.7149264,185.115895 63.9573017,186.855221 69.3823405,188.180421 L69.3823405,176.874806 C65.365327,176.957631 62.7149264,179.359557 62.7149264,182.341257 Z" id="$" fill="#FFFFFF"></path>
                <path d="M116.03,209 L116.03,199.766 L95.564,199.766 L94.592,197.66 L116.192,170.93 L118.73,170.93 L118.73,197.336 L124.886,197.336 L124.886,199.766 L118.73,199.766 L118.73,209 L116.03,209 Z M97.994,197.336 L116.03,197.336 L116.03,174.98 L97.994,197.336 Z M143.138,209.648 C138.44,209.648 134.876,207.596 131.744,204.95 L133.526,202.79 C136.712,205.652 139.736,207.11 143.192,207.11 C150.806,207.11 156.152,198.956 155.72,187.616 C153.56,191.504 149.888,194.906 143.948,194.906 C136.334,194.906 130.88,189.83 130.88,183.35 L130.88,183.242 C130.88,176.276 136.28,170.552 144.164,170.552 C148.214,170.552 151.508,172.118 153.776,174.386 C156.692,177.302 158.528,181.568 158.528,189.128 L158.528,189.236 C158.528,201.116 151.94,209.648 143.138,209.648 Z M144.056,192.422 C150.482,192.422 154.586,187.562 154.586,182.81 L154.586,182.702 C154.586,177.356 150.104,173.09 143.84,173.09 C137.63,173.09 133.796,177.896 133.796,183.134 L133.796,183.242 C133.796,188.534 138.062,192.422 144.056,192.422 Z" id="49" fill="#FFFFFF"></path>
                <path d="M163.514,209.456 L176.258,184.454 L177.581,184.454 L164.837,209.456 L163.514,209.456 Z M178.622723,206 L178.622723,192.23 L179.945723,192.23 L179.945723,194.687 C180.836723,193.256 182.078723,191.906 184.535723,191.906 C186.938723,191.906 188.423723,193.283 189.179723,194.876 C190.070723,193.337 191.555723,191.906 194.147723,191.906 C197.414723,191.906 199.439723,194.201 199.439723,197.657 L199.439723,206 L198.116723,206 L198.116723,197.819 C198.116723,194.849 196.577723,193.121 194.039723,193.121 C191.717723,193.121 189.692723,194.903 189.692723,197.981 L189.692723,206 L188.369723,206 L188.369723,197.738 C188.369723,194.876 186.803723,193.121 184.346723,193.121 C181.889723,193.121 179.945723,195.281 179.945723,198.062 L179.945723,206 L178.622723,206 Z M210.369165,206.324 C206.292165,206.324 203.322165,203.03 203.322165,199.169 L203.322165,199.115 C203.322165,195.254 206.319165,191.906 210.423165,191.906 C214.500165,191.906 217.470165,195.2 217.470165,199.061 L217.470165,199.115 C217.470165,202.976 214.473165,206.324 210.369165,206.324 Z M210.423165,205.082 C213.690165,205.082 216.039165,202.409 216.039165,199.169 L216.039165,199.115 C216.039165,195.794 213.555165,193.148 210.369165,193.148 C207.102165,193.148 204.753165,195.821 204.753165,199.061 L204.753165,199.115 C204.753165,202.436 207.237165,205.082 210.423165,205.082 Z M220.677608,206 L220.677608,203.705 L222.459608,203.705 L222.459608,206 L220.677608,206 Z" id="/mo." fill="#FFFFFF"></path>
                <path d="M92.937,102.324 C90.993,102.324 89.265,101.568 88.131,100.434 C86.565,98.868 85.728,96.978 85.728,93.063 L85.728,93.009 C85.728,87.312 88.725,82.776 93.423,82.776 C95.583,82.776 97.23,83.613 98.877,84.963 L97.986,86.043 C96.528,84.747 95.097,84.045 93.315,84.045 C89.481,84.045 86.997,88.068 87.132,93.846 C88.212,92.01 89.967,90.336 93.045,90.336 C96.474,90.336 99.552,92.685 99.552,96.06 L99.552,96.114 C99.552,99.678 96.663,102.324 92.937,102.324 Z M93.045,101.055 C96.096,101.055 98.094,98.841 98.094,96.168 L98.094,96.114 C98.094,93.522 95.961,91.578 92.964,91.578 C89.859,91.578 87.699,93.927 87.699,96.249 L87.699,96.303 C87.699,99.003 89.994,101.055 93.045,101.055 Z M108.482031,98.949 L108.482031,93.144 L102.623031,93.144 L102.623031,91.848 L108.482031,91.848 L108.482031,86.043 L109.832031,86.043 L109.832031,91.848 L115.691031,91.848 L115.691031,93.144 L109.832031,93.144 L109.832031,98.949 L108.482031,98.949 Z M132.282092,102.324 C128.799092,102.324 126.774092,99.948 126.774092,96.654 L126.774092,88.23 L128.097092,88.23 L128.097092,96.411 C128.097092,99.246 129.690092,101.109 132.471092,101.109 C135.171092,101.109 137.250092,99.057 137.250092,96.195 L137.250092,88.23 L138.573092,88.23 L138.573092,102 L137.250092,102 L137.250092,99.435 C136.332092,101.055 134.793092,102.324 132.282092,102.324 Z M147.503122,102.27 C145.505122,102.27 143.318122,101.46 141.860122,100.272 L142.643122,99.219 C144.155122,100.38 145.829122,101.028 147.584122,101.028 C149.447122,101.028 150.905122,100.002 150.905122,98.409 L150.905122,98.355 C150.905122,96.735 149.177122,96.141 147.260122,95.601 C145.019122,94.953 142.535122,94.278 142.535122,91.821 L142.535122,91.767 C142.535122,89.553 144.398122,87.96 147.071122,87.96 C148.718122,87.96 150.581122,88.554 151.958122,89.472 L151.256122,90.579 C149.987122,89.742 148.475122,89.202 147.017122,89.202 C145.127122,89.202 143.885122,90.228 143.885122,91.605 L143.885122,91.659 C143.885122,93.198 145.748122,93.765 147.719122,94.332 C149.933122,94.953 152.255122,95.763 152.255122,98.193 L152.255122,98.247 C152.255122,100.704 150.149122,102.27 147.503122,102.27 Z M161.725153,102.324 C158.107153,102.324 154.975153,99.435 154.975153,95.142 L154.975153,95.088 C154.975153,91.092 157.783153,87.906 161.509153,87.906 C165.370153,87.906 167.827153,91.038 167.827153,95.115 C167.827153,95.358 167.827153,95.439 167.800153,95.655 L156.379153,95.655 C156.622153,99.084 159.079153,101.082 161.779153,101.082 C163.912153,101.082 165.370153,100.137 166.504153,98.922 L167.422153,99.732 C166.018153,101.244 164.371153,102.324 161.725153,102.324 Z M156.379153,94.467 L166.396153,94.467 C166.207153,91.686 164.614153,89.121 161.455153,89.121 C158.728153,89.121 156.622153,91.416 156.379153,94.467 Z M171.141183,102 L171.141183,88.23 L172.464183,88.23 L172.464183,92.145 C173.544183,89.688 175.839183,87.906 178.566183,88.014 L178.566183,89.472 L178.431183,89.472 C175.245183,89.472 172.464183,91.875 172.464183,96.357 L172.464183,102 L171.141183,102 Z M185.849214,102.27 C183.851214,102.27 181.664214,101.46 180.206214,100.272 L180.989214,99.219 C182.501214,100.38 184.175214,101.028 185.930214,101.028 C187.793214,101.028 189.251214,100.002 189.251214,98.409 L189.251214,98.355 C189.251214,96.735 187.523214,96.141 185.606214,95.601 C183.365214,94.953 180.881214,94.278 180.881214,91.821 L180.881214,91.767 C180.881214,89.553 182.744214,87.96 185.417214,87.96 C187.064214,87.96 188.927214,88.554 190.304214,89.472 L189.602214,90.579 C188.333214,89.742 186.821214,89.202 185.363214,89.202 C183.473214,89.202 182.231214,90.228 182.231214,91.605 L182.231214,91.659 C182.231214,93.198 184.094214,93.765 186.065214,94.332 C188.279214,94.953 190.601214,95.763 190.601214,98.193 L190.601214,98.247 C190.601214,100.704 188.495214,102.27 185.849214,102.27 Z" id="6+-users" fill="#FFFFFF"></path>
                <path d="M80.07,142 L80.07,125.9 L92.007,125.9 L92.007,128.43 L82.899,128.43 L82.899,132.616 L90.972,132.616 L90.972,135.146 L82.899,135.146 L82.899,139.47 L92.122,139.47 L92.122,142 L80.07,142 Z M94.6920631,142 L94.6920631,129.856 L97.4750631,129.856 L97.4750631,131.742 C98.2570631,130.592 99.3840631,129.603 101.270063,129.603 C104.007063,129.603 105.594063,131.443 105.594063,134.272 L105.594063,142 L102.811063,142 L102.811063,135.1 C102.811063,133.214 101.868063,132.133 100.212063,132.133 C98.6020631,132.133 97.4750631,133.26 97.4750631,135.146 L97.4750631,142 L94.6920631,142 Z M112.557126,142.207 C110.510126,142.207 109.061126,141.31 109.061126,138.642 L109.061126,132.248 L107.520126,132.248 L107.520126,129.856 L109.061126,129.856 L109.061126,126.521 L111.844126,126.521 L111.844126,129.856 L115.110126,129.856 L115.110126,132.248 L111.844126,132.248 L111.844126,138.205 C111.844126,139.286 112.396126,139.723 113.339126,139.723 C113.960126,139.723 114.512126,139.585 115.064126,139.309 L115.064126,141.586 C114.374126,141.977 113.592126,142.207 112.557126,142.207 Z M122.671189,142.276 C119.152189,142.276 116.438189,139.723 116.438189,135.974 L116.438189,135.928 C116.438189,132.455 118.899189,129.603 122.372189,129.603 C126.236189,129.603 128.191189,132.639 128.191189,136.135 C128.191189,136.388 128.168189,136.641 128.145189,136.917 L119.221189,136.917 C119.520189,138.895 120.923189,139.999 122.717189,139.999 C124.074189,139.999 125.040189,139.493 126.006189,138.55 L127.639189,139.999 C126.489189,141.379 124.902189,142.276 122.671189,142.276 Z M119.198189,135.077 L125.431189,135.077 C125.247189,133.283 124.189189,131.88 122.349189,131.88 C120.647189,131.88 119.451189,133.191 119.198189,135.077 Z M130.531252,142 L130.531252,129.856 L133.314252,129.856 L133.314252,132.593 C134.073252,130.776 135.476252,129.534 137.615252,129.626 L137.615252,132.57 L137.454252,132.57 C135.016252,132.57 133.314252,134.157 133.314252,137.377 L133.314252,142 L130.531252,142 Z M139.564315,145.68 L139.564315,129.856 L142.347316,129.856 L142.347316,131.88 C143.244315,130.615 144.509316,129.603 146.464315,129.603 C149.339315,129.603 152.122316,131.88 152.122316,135.905 L152.122316,135.951 C152.122316,139.976 149.362315,142.253 146.464315,142.253 C144.463316,142.253 143.198316,141.241 142.347316,140.114 L142.347316,145.68 L139.564315,145.68 Z M145.820315,139.838 C147.729315,139.838 149.293316,138.343 149.293316,135.951 L149.293316,135.905 C149.293316,133.559 147.706316,132.018 145.820315,132.018 C143.934315,132.018 142.278316,133.582 142.278316,135.905 L142.278316,135.951 C142.278316,138.297 143.934315,139.838 145.820315,139.838 Z M154.508379,142 L154.508379,129.856 L157.291379,129.856 L157.291379,132.593 C158.050379,130.776 159.453379,129.534 161.592379,129.626 L161.592379,132.57 L161.431379,132.57 C158.993379,132.57 157.291379,134.157 157.291379,137.377 L157.291379,142 L154.508379,142 Z M163.587442,127.993 L163.587442,125.348 L166.577442,125.348 L166.577442,127.993 L163.587442,127.993 Z M163.702442,142 L163.702442,129.856 L166.485442,129.856 L166.485442,142 L163.702442,142 Z M173.816505,142.23 C172.091505,142.23 170.182505,141.609 168.664505,140.413 L169.906505,138.527 C171.217505,139.516 172.643505,140.022 173.885505,140.022 C175.081505,140.022 175.771505,139.516 175.771505,138.711 L175.771505,138.665 C175.771505,137.722 174.483505,137.4 173.057505,136.963 C171.263505,136.457 169.262505,135.721 169.262505,133.398 L169.262505,133.352 C169.262505,131.052 171.171505,129.649 173.586505,129.649 C175.104505,129.649 176.760505,130.178 178.048505,131.029 L176.944505,133.007 C175.771505,132.294 174.529505,131.857 173.517505,131.857 C172.436505,131.857 171.815505,132.363 171.815505,133.076 L171.815505,133.122 C171.815505,133.996 173.126505,134.364 174.552505,134.824 C176.323505,135.376 178.324505,136.181 178.324505,138.366 L178.324505,138.412 C178.324505,140.965 176.346505,142.23 173.816505,142.23 Z M186.253568,142.276 C182.734568,142.276 180.020568,139.723 180.020568,135.974 L180.020568,135.928 C180.020568,132.455 182.481568,129.603 185.954568,129.603 C189.818568,129.603 191.773568,132.639 191.773568,136.135 C191.773568,136.388 191.750568,136.641 191.727568,136.917 L182.803568,136.917 C183.102568,138.895 184.505568,139.999 186.299568,139.999 C187.656568,139.999 188.622568,139.493 189.588568,138.55 L191.221568,139.999 C190.071568,141.379 188.484568,142.276 186.253568,142.276 Z M182.780568,135.077 L189.013568,135.077 C188.829568,133.283 187.771568,131.88 185.931568,131.88 C184.229568,131.88 183.033568,133.191 182.780568,135.077 Z" id="Enterprise" fill="#FFFFFF"></path>
            </g>
        </g>
    </g>
</svg>