<?xml version="1.0" encoding="UTF-8"?>
<svg width="255px" height="261px" viewBox="0 0 255 261" version="1.1" xmlns="http://www.w3.org/2000/svg" xmlns:xlink="http://www.w3.org/1999/xlink">
    <!-- Generator: Sketch 51.2 (57519) - http://www.bohemiancoding.com/sketch -->
    <title>Group 13</title>
    <desc>Created with Sketch.</desc>
    <defs>
        <linearGradient x1="78.7777204%" y1="13.6434189%" x2="31.7732682%" y2="87.5701434%" id="linearGradient-1">
            <stop stop-color="#508CFF" stop-opacity="0.4" offset="0%"></stop>
            <stop stop-color="#687EE2" stop-opacity="0.48" offset="9%"></stop>
            <stop stop-color="#9563AC" stop-opacity="0.64" offset="26%"></stop>
            <stop stop-color="#BA4D7F" stop-opacity="0.77" offset="43%"></stop>
            <stop stop-color="#D73C5D" stop-opacity="0.87" offset="59%"></stop>
            <stop stop-color="#EC2F43" stop-opacity="0.94" offset="74%"></stop>
            <stop stop-color="#F92834" stop-opacity="0.98" offset="87%"></stop>
            <stop stop-color="#FD252F" offset="97%"></stop>
        </linearGradient>
        <linearGradient x1="0.00126792555%" y1="50.000081%" x2="97.0011007%" y2="50.000081%" id="linearGradient-2">
            <stop stop-color="#6485F6" offset="0%"></stop>
            <stop stop-color="#6EABFB" offset="100%"></stop>
        </linearGradient>
        <linearGradient x1="0.00126792555%" y1="50.000081%" x2="100.001096%" y2="50.000081%" id="linearGradient-3">
            <stop stop-color="#4A27C5" stop-opacity="0.4" offset="0%"></stop>
            <stop stop-color="#4A27C5" stop-opacity="0.6" offset="26%"></stop>
            <stop stop-color="#4A27C5" stop-opacity="0.81" offset="59%"></stop>
            <stop stop-color="#4A27C5" stop-opacity="0.95" offset="85%"></stop>
            <stop stop-color="#4A27C5" offset="100%"></stop>
        </linearGradient>
    </defs>
    <g id="Voiso" stroke="none" stroke-width="1" fill="none" fill-rule="evenodd">
        <g id="Voiso_desktop-Copy" transform="translate(-999.000000, -7034.000000)">
            <g id="Group-13" transform="translate(999.000000, 7034.000000)">
                <g id="pricing_right" fill-rule="nonzero">
                    <path d="M137.192523,6.21781152 C39.9652001,66.1663913 -8.4060148,69.5831497 1.19860247,143.987724 C10.8032197,218.392298 181.268081,297.574121 232.498923,215.174333 C283.729765,132.774544 202.802316,-34.230396 137.192523,6.21781152 Z" id="Shape" fill="url(#linearGradient-1)"></path>
                    <path d="M116.867751,260.853811 C73.0398178,258.811291 35.3542478,227.248457 16.4432144,157.647565 C-2.46781907,88.0466729 29.4724697,-8.5726011 64.5335754,16.7198825 C207.278374,119.665382 239.04494,30.7691929 251.739157,76.8779989 C267.349446,133.590527 227.641239,266.006674 116.867751,260.853811 Z" id="Shape" fill="url(#linearGradient-2)" style="mix-blend-mode: multiply;"></path>
                    <path d="M116.867751,260.853811 C73.0398178,258.811291 35.3542478,227.248457 16.4432144,157.647565 C-2.46781907,88.0466729 29.4724697,-8.5726011 64.5335754,16.7198825 C207.278374,119.665382 239.04494,30.7691929 251.739157,76.8779989 C267.349446,133.590527 227.641239,266.006674 116.867751,260.853811 Z" id="Shape" fill="url(#linearGradient-3)"></path>
                </g>
                <g id="Group-11" transform="translate(57.000000, 166.000000)" fill="#FFFFFF">
                    <path d="M12.2995155,42.058426 L12.2995155,37.9585875 C8.53097706,37.6272874 5.46645132,36.1778496 2.4847506,33.5274489 L3.85136343,31.912361 C6.41893905,34.3556991 8.98651467,35.7637245 12.3823405,36.0950245 L12.3823405,24.2924592 C6.17046399,22.9258464 3.60288837,20.6481583 3.60288837,16.5069073 C3.60288837,12.3242438 7.24718925,9.13548053 12.2995155,9.011243 L12.2995155,6.60931742 L14.2873159,6.60931742 L14.2873159,9.09406802 C17.4760792,9.38395559 19.7951798,10.5020934 22.2799304,12.4898938 L20.9133175,14.1049817 C18.7184545,12.2000063 16.6064165,11.2475185 14.2044909,10.957631 L14.2044909,22.5945463 C20.4991924,23.9197466 23.1495931,26.2802597 23.1495931,30.3386857 C23.1495931,34.7284117 19.4638797,37.83435 14.2873159,38 L14.2873159,42.058426 L12.2995155,42.058426 Z M21.0375551,30.5043357 C21.0375551,27.688285 19.6709422,25.9489596 14.2044909,24.7065843 L14.2044909,36.136437 C18.3457419,36.053612 21.0375551,33.6516864 21.0375551,30.5043357 Z M5.71492638,16.3412573 C5.71492638,19.1158954 6.95730168,20.8552209 12.3823405,22.1804212 L12.3823405,10.8748059 C8.36532702,10.957631 5.71492638,13.3595566 5.71492638,16.3412573 Z" id="$"></path>
                    <path d="M43.424,43 L60.596,7.9 L38.672,7.9 L38.672,5.2 L63.728,5.2 L63.728,7.252 L46.502,43 L43.424,43 Z M81.71,43.648 C77.012,43.648 73.448,41.596 70.316,38.95 L72.098,36.79 C75.284,39.652 78.308,41.11 81.764,41.11 C89.378,41.11 94.724,32.956 94.292,21.616 C92.132,25.504 88.46,28.906 82.52,28.906 C74.906,28.906 69.452,23.83 69.452,17.35 L69.452,17.242 C69.452,10.276 74.852,4.552 82.736,4.552 C86.786,4.552 90.08,6.118 92.348,8.386 C95.264,11.302 97.1,15.568 97.1,23.128 L97.1,23.236 C97.1,35.116 90.512,43.648 81.71,43.648 Z M82.628,26.422 C89.054,26.422 93.158,21.562 93.158,16.81 L93.158,16.702 C93.158,11.356 88.676,7.09 82.412,7.09 C76.202,7.09 72.368,11.896 72.368,17.134 L72.368,17.242 C72.368,22.534 76.634,26.422 82.628,26.422 Z" id="79"></path>
                    <path d="M107.514,43.456 L120.258,18.454 L121.581,18.454 L108.837,43.456 L107.514,43.456 Z M122.622723,40 L122.622723,26.23 L123.945723,26.23 L123.945723,28.687 C124.836723,27.256 126.078723,25.906 128.535723,25.906 C130.938723,25.906 132.423723,27.283 133.179723,28.876 C134.070723,27.337 135.555723,25.906 138.147723,25.906 C141.414723,25.906 143.439723,28.201 143.439723,31.657 L143.439723,40 L142.116723,40 L142.116723,31.819 C142.116723,28.849 140.577723,27.121 138.039723,27.121 C135.717723,27.121 133.692723,28.903 133.692723,31.981 L133.692723,40 L132.369723,40 L132.369723,31.738 C132.369723,28.876 130.803723,27.121 128.346723,27.121 C125.889723,27.121 123.945723,29.281 123.945723,32.062 L123.945723,40 L122.622723,40 Z M154.369165,40.324 C150.292165,40.324 147.322165,37.03 147.322165,33.169 L147.322165,33.115 C147.322165,29.254 150.319165,25.906 154.423165,25.906 C158.500165,25.906 161.470165,29.2 161.470165,33.061 L161.470165,33.115 C161.470165,36.976 158.473165,40.324 154.369165,40.324 Z M154.423165,39.082 C157.690165,39.082 160.039165,36.409 160.039165,33.169 L160.039165,33.115 C160.039165,29.794 157.555165,27.148 154.369165,27.148 C151.102165,27.148 148.753165,29.821 148.753165,33.061 L148.753165,33.115 C148.753165,36.436 151.237165,39.082 154.423165,39.082 Z M164.677608,40 L164.677608,37.705 L166.459608,37.705 L166.459608,40 L164.677608,40 Z" id="/mo."></path>
                </g>
                <path d="M91.937,102.324 C89.993,102.324 88.265,101.568 87.131,100.434 C85.565,98.868 84.728,96.978 84.728,93.063 L84.728,93.009 C84.728,87.312 87.725,82.776 92.423,82.776 C94.583,82.776 96.23,83.613 97.877,84.963 L96.986,86.043 C95.528,84.747 94.097,84.045 92.315,84.045 C88.481,84.045 85.997,88.068 86.132,93.846 C87.212,92.01 88.967,90.336 92.045,90.336 C95.474,90.336 98.552,92.685 98.552,96.06 L98.552,96.114 C98.552,99.678 95.663,102.324 91.937,102.324 Z M92.045,101.055 C95.096,101.055 97.094,98.841 97.094,96.168 L97.094,96.114 C97.094,93.522 94.961,91.578 91.964,91.578 C88.859,91.578 86.699,93.927 86.699,96.249 L86.699,96.303 C86.699,99.003 88.994,101.055 92.045,101.055 Z M108.040785,98.949 L108.040785,93.144 L102.181785,93.144 L102.181785,91.848 L108.040785,91.848 L108.040785,86.043 L109.390785,86.043 L109.390785,91.848 L115.249785,91.848 L115.249785,93.144 L109.390785,93.144 L109.390785,98.949 L108.040785,98.949 Z M132.958354,102.324 C129.475354,102.324 127.450354,99.948 127.450354,96.654 L127.450354,88.23 L128.773354,88.23 L128.773354,96.411 C128.773354,99.246 130.366354,101.109 133.147354,101.109 C135.847354,101.109 137.926354,99.057 137.926354,96.195 L137.926354,88.23 L139.249354,88.23 L139.249354,102 L137.926354,102 L137.926354,99.435 C137.008354,101.055 135.469354,102.324 132.958354,102.324 Z M148.738139,102.27 C146.740139,102.27 144.553139,101.46 143.095139,100.272 L143.878139,99.219 C145.390139,100.38 147.064139,101.028 148.819139,101.028 C150.682139,101.028 152.140139,100.002 152.140139,98.409 L152.140139,98.355 C152.140139,96.735 150.412139,96.141 148.495139,95.601 C146.254139,94.953 143.770139,94.278 143.770139,91.821 L143.770139,91.767 C143.770139,89.553 145.633139,87.96 148.306139,87.96 C149.953139,87.96 151.816139,88.554 153.193139,89.472 L152.491139,90.579 C151.222139,89.742 149.710139,89.202 148.252139,89.202 C146.362139,89.202 145.120139,90.228 145.120139,91.605 L145.120139,91.659 C145.120139,93.198 146.983139,93.765 148.954139,94.332 C151.168139,94.953 153.490139,95.763 153.490139,98.193 L153.490139,98.247 C153.490139,100.704 151.384139,102.27 148.738139,102.27 Z M163.518924,102.324 C159.900924,102.324 156.768924,99.435 156.768924,95.142 L156.768924,95.088 C156.768924,91.092 159.576924,87.906 163.302924,87.906 C167.163924,87.906 169.620924,91.038 169.620924,95.115 C169.620924,95.358 169.620924,95.439 169.593924,95.655 L158.172924,95.655 C158.415924,99.084 160.872924,101.082 163.572924,101.082 C165.705924,101.082 167.163924,100.137 168.297924,98.922 L169.215924,99.732 C167.811924,101.244 166.164924,102.324 163.518924,102.324 Z M158.172924,94.467 L168.189924,94.467 C168.000924,91.686 166.407924,89.121 163.248924,89.121 C160.521924,89.121 158.415924,91.416 158.172924,94.467 Z M173.493709,102 L173.493709,88.23 L174.816709,88.23 L174.816709,92.145 C175.896709,89.688 178.191709,87.906 180.918709,88.014 L180.918709,89.472 L180.783709,89.472 C177.597709,89.472 174.816709,91.875 174.816709,96.357 L174.816709,102 L173.493709,102 Z M188.760494,102.27 C186.762494,102.27 184.575494,101.46 183.117494,100.272 L183.900494,99.219 C185.412494,100.38 187.086494,101.028 188.841494,101.028 C190.704494,101.028 192.162494,100.002 192.162494,98.409 L192.162494,98.355 C192.162494,96.735 190.434494,96.141 188.517494,95.601 C186.276494,94.953 183.792494,94.278 183.792494,91.821 L183.792494,91.767 C183.792494,89.553 185.655494,87.96 188.328494,87.96 C189.975494,87.96 191.838494,88.554 193.215494,89.472 L192.513494,90.579 C191.244494,89.742 189.732494,89.202 188.274494,89.202 C186.384494,89.202 185.142494,90.228 185.142494,91.605 L185.142494,91.659 C185.142494,93.198 187.005494,93.765 188.976494,94.332 C191.190494,94.953 193.512494,95.763 193.512494,98.193 L193.512494,98.247 C193.512494,100.704 191.406494,102.27 188.760494,102.27 Z" id="6+-users" fill="#FFFFFF"></path>
                <path d="M62.07,138 L62.07,121.9 L68.418,121.9 C72.167,121.9 74.536,124.039 74.536,127.282 L74.536,127.328 C74.536,130.939 71.638,132.825 68.096,132.825 L64.899,132.825 L64.899,138 L62.07,138 Z M64.899,130.272 L68.188,130.272 C70.327,130.272 71.661,129.076 71.661,127.397 L71.661,127.351 C71.661,125.465 70.304,124.476 68.188,124.476 L64.899,124.476 L64.899,130.272 Z M76.6460631,138 L76.6460631,125.856 L79.4290631,125.856 L79.4290631,128.593 C80.1880631,126.776 81.5910631,125.534 83.7300631,125.626 L83.7300631,128.57 L83.5690631,128.57 C81.1310631,128.57 79.4290631,130.157 79.4290631,133.377 L79.4290631,138 L76.6460631,138 Z M90.8311262,138.276 C87.3121262,138.276 84.5981262,135.723 84.5981262,131.974 L84.5981262,131.928 C84.5981262,128.455 87.0591262,125.603 90.5321262,125.603 C94.3961262,125.603 96.3511262,128.639 96.3511262,132.135 C96.3511262,132.388 96.3281262,132.641 96.3051262,132.917 L87.3811262,132.917 C87.6801262,134.895 89.0831262,135.999 90.8771262,135.999 C92.2341262,135.999 93.2001262,135.493 94.1661262,134.55 L95.7991262,135.999 C94.6491262,137.379 93.0621262,138.276 90.8311262,138.276 Z M87.3581262,131.077 L93.5911262,131.077 C93.4071262,129.283 92.3491262,127.88 90.5091262,127.88 C88.8071262,127.88 87.6111262,129.191 87.3581262,131.077 Z M98.6911893,138 L98.6911893,125.856 L101.474189,125.856 L101.474189,127.696 C102.256189,126.615 103.314189,125.603 105.177189,125.603 C106.925189,125.603 108.144189,126.454 108.788189,127.742 C109.777189,126.454 111.065189,125.603 112.905189,125.603 C115.550189,125.603 117.160189,127.282 117.160189,130.249 L117.160189,138 L114.377189,138 L114.377189,131.1 C114.377189,129.168 113.480189,128.133 111.916189,128.133 C110.398189,128.133 109.317189,129.191 109.317189,131.146 L109.317189,138 L106.534189,138 L106.534189,131.077 C106.534189,129.191 105.614189,128.133 104.073189,128.133 C102.532189,128.133 101.474189,129.283 101.474189,131.169 L101.474189,138 L98.6911893,138 Z M120.121252,123.993 L120.121252,121.348 L123.111252,121.348 L123.111252,123.993 L120.121252,123.993 Z M120.236252,138 L120.236252,125.856 L123.019252,125.856 L123.019252,138 L120.236252,138 Z M130.373315,138.253 C127.636315,138.253 126.049315,136.413 126.049315,133.584 L126.049315,125.856 L128.832315,125.856 L128.832315,132.756 C128.832315,134.642 129.775315,135.723 131.431315,135.723 C133.041315,135.723 134.168315,134.596 134.168315,132.71 L134.168315,125.856 L136.951315,125.856 L136.951315,138 L134.168315,138 L134.168315,136.114 C133.386315,137.264 132.259315,138.253 130.373315,138.253 Z M139.981379,138 L139.981379,125.856 L142.764379,125.856 L142.764379,127.696 C143.546379,126.615 144.604379,125.603 146.467379,125.603 C148.215379,125.603 149.434379,126.454 150.078379,127.742 C151.067379,126.454 152.355379,125.603 154.195379,125.603 C156.840379,125.603 158.450379,127.282 158.450379,130.249 L158.450379,138 L155.667379,138 L155.667379,131.1 C155.667379,129.168 154.770379,128.133 153.206379,128.133 C151.688379,128.133 150.607379,129.191 150.607379,131.146 L150.607379,138 L147.824379,138 L147.824379,131.077 C147.824379,129.191 146.904379,128.133 145.363379,128.133 C143.822379,128.133 142.764379,129.283 142.764379,131.169 L142.764379,138 L139.981379,138 Z M168.121505,138 L168.121505,121.9 L174.469505,121.9 C178.218505,121.9 180.587505,124.039 180.587505,127.282 L180.587505,127.328 C180.587505,130.939 177.689505,132.825 174.147505,132.825 L170.950505,132.825 L170.950505,138 L168.121505,138 Z M170.950505,130.272 L174.239505,130.272 C176.378505,130.272 177.712505,129.076 177.712505,127.397 L177.712505,127.351 C177.712505,125.465 176.355505,124.476 174.239505,124.476 L170.950505,124.476 L170.950505,130.272 Z M182.858568,138 L182.858568,121.21 L185.641568,121.21 L185.641568,138 L182.858568,138 Z M192.995631,138.253 C190.258631,138.253 188.671631,136.413 188.671631,133.584 L188.671631,125.856 L191.454631,125.856 L191.454631,132.756 C191.454631,134.642 192.397631,135.723 194.053631,135.723 C195.663631,135.723 196.790631,134.596 196.790631,132.71 L196.790631,125.856 L199.573631,125.856 L199.573631,138 L196.790631,138 L196.790631,136.114 C196.008631,137.264 194.881631,138.253 192.995631,138.253 Z M206.766694,138.23 C205.041694,138.23 203.132694,137.609 201.614694,136.413 L202.856694,134.527 C204.167694,135.516 205.593694,136.022 206.835694,136.022 C208.031694,136.022 208.721694,135.516 208.721694,134.711 L208.721694,134.665 C208.721694,133.722 207.433694,133.4 206.007694,132.963 C204.213694,132.457 202.212694,131.721 202.212694,129.398 L202.212694,129.352 C202.212694,127.052 204.121694,125.649 206.536694,125.649 C208.054694,125.649 209.710694,126.178 210.998694,127.029 L209.894694,129.007 C208.721694,128.294 207.479694,127.857 206.467694,127.857 C205.386694,127.857 204.765694,128.363 204.765694,129.076 L204.765694,129.122 C204.765694,129.996 206.076694,130.364 207.502694,130.824 C209.273694,131.376 211.274694,132.181 211.274694,134.366 L211.274694,134.412 C211.274694,136.965 209.296694,138.23 206.766694,138.23 Z" id="Premium-Plus" fill="#FFFFFF"></path>
            </g>
        </g>
    </g>
</svg>