<?xml version="1.0" encoding="UTF-8"?>
<svg width="283px" height="290px" viewBox="0 0 283 290" version="1.1" xmlns="http://www.w3.org/2000/svg" xmlns:xlink="http://www.w3.org/1999/xlink">
    <!-- Generator: Sketch 50.2 (55047) - http://www.bohemiancoding.com/sketch -->
    <title>Group 14</title>
    <desc>Created with Sketch.</desc>
    <defs>
        <linearGradient x1="78.7777204%" y1="13.6434189%" x2="31.7732682%" y2="87.5701434%" id="linearGradient-1">
            <stop stop-color="#508CFF" stop-opacity="0.4" offset="0%"></stop>
            <stop stop-color="#687EE2" stop-opacity="0.48" offset="9%"></stop>
            <stop stop-color="#9563AC" stop-opacity="0.64" offset="26%"></stop>
            <stop stop-color="#BA4D7F" stop-opacity="0.77" offset="43%"></stop>
            <stop stop-color="#D73C5D" stop-opacity="0.87" offset="59%"></stop>
            <stop stop-color="#EC2F43" stop-opacity="0.94" offset="74%"></stop>
            <stop stop-color="#F92834" stop-opacity="0.98" offset="87%"></stop>
            <stop stop-color="#FD252F" offset="97%"></stop>
        </linearGradient>
        <linearGradient x1="0.00126792555%" y1="50.000081%" x2="100.001096%" y2="50.000081%" id="linearGradient-2">
            <stop stop-color="#6485F6" offset="0%"></stop>
            <stop stop-color="#6EABFB" offset="97%"></stop>
        </linearGradient>
        <linearGradient x1="0.00126792555%" y1="50.000081%" x2="100.001096%" y2="50.000081%" id="linearGradient-3">
            <stop stop-color="#4A27C5" stop-opacity="0.4" offset="0%"></stop>
            <stop stop-color="#4A27C5" stop-opacity="0.6" offset="26%"></stop>
            <stop stop-color="#4A27C5" stop-opacity="0.81" offset="59%"></stop>
            <stop stop-color="#4A27C5" stop-opacity="0.95" offset="85%"></stop>
            <stop stop-color="#4A27C5" offset="100%"></stop>
        </linearGradient>
    </defs>
    <g id="Voiso" stroke="none" stroke-width="1" fill="none" fill-rule="evenodd">
        <g id="Voiso_desktop" transform="translate(-972.000000, -7073.000000)">
            <g id="Group-14" transform="translate(972.000000, 7073.000000)">
                <g id="pricing_right" fill-rule="nonzero">
                    <path d="M152.2568,6.90867947 C44.3535358,73.5182125 -9.32902819,77.3146108 1.33021372,159.98636 C11.9894556,242.658109 201.172027,330.637913 258.028216,239.082592 C314.884405,147.527271 225.070806,-38.0337734 152.2568,6.90867947 Z" id="Shape" fill="url(#linearGradient-1)"></path>
                    <path d="M129.700288,289.837568 C81.0598762,287.568101 39.2362829,252.498285 18.2487438,175.163961 C-2.73879528,97.8296366 32.7086625,-9.52511234 71.619615,18.5776472 C230.038352,132.961535 265.293011,34.1879921 279.381103,85.4199988 C296.705463,148.433918 252.63714,295.562971 129.700288,289.837568 Z" id="Shape" fill="url(#linearGradient-2)" style="mix-blend-mode: multiply;"></path>
                    <path d="M129.700288,289.837568 C81.0598762,287.568101 39.2362829,252.498285 18.2487438,175.163961 C-2.73879528,97.8296366 32.7086625,-9.52511234 71.619615,18.5776472 C230.038352,132.961535 265.293011,34.1879921 279.381103,85.4199988 C296.705463,148.433918 252.63714,295.562971 129.700288,289.837568 Z" id="Shape" fill="url(#linearGradient-3)"></path>
                </g>
                <path d="M77.6661283,165.509362 L77.6661283,160.953986 C73.4788634,160.585875 70.0738348,158.975388 66.760834,156.030499 L68.2792927,154.235957 C71.1321545,156.950777 73.9850163,158.515249 77.7581561,158.883361 L77.7581561,145.769399 C70.8560711,144.25094 68.0032093,141.720176 68.0032093,137.118786 C68.0032093,132.471382 72.0524325,128.928312 77.6661283,128.79027 L77.6661283,126.121464 L79.8747955,126.121464 L79.8747955,128.882298 C83.4178658,129.204395 85.9946442,130.44677 88.7554782,132.655438 L87.2370195,134.44998 C84.7982828,132.33334 82.4515739,131.275021 79.7827677,130.952923 L79.7827677,143.882829 C86.7768805,145.355274 89.7217701,147.978066 89.7217701,152.487428 C89.7217701,157.364902 85.626533,160.815944 79.8747955,161 L79.8747955,165.509362 L77.6661283,165.509362 Z M87.3750612,152.671484 C87.3750612,149.542539 85.8566025,147.609955 79.7827677,146.229538 L79.7827677,158.929374 C84.3841577,158.837347 87.3750612,156.168541 87.3750612,152.671484 Z M70.3499182,136.93473 C70.3499182,140.017662 71.7303352,141.950245 77.7581561,143.42269 L77.7581561,130.860895 C73.2948078,130.952923 70.3499182,133.62173 70.3499182,136.93473 Z" id="$" fill="#FFFFFF"></path>
                <path d="M120.12,188.72 C114.42,188.72 109.08,185.66 105.42,181.94 L107.64,179.72 C111.42,183.5 115.8,185.9 120.24,185.9 C126.9,185.9 131.52,181.22 131.52,175.34 L131.52,175.22 C131.52,169.4 126.78,165.26 120,165.26 C116.1,165.26 113.16,166.46 110.52,167.9 L108.12,166.34 L109.32,146 L132.9,146 L132.9,149 L112.08,149 L111.06,164.72 C113.76,163.4 116.46,162.44 120.36,162.44 C128.46,162.44 134.76,167.6 134.76,175.1 L134.76,175.22 C134.76,183.14 128.58,188.72 120.12,188.72 Z M159.54,188.72 C148.86,188.72 142.2,178.7 142.2,167.12 L142.2,167 C142.2,155.42 148.98,145.28 159.66,145.28 C170.34,145.28 177,155.3 177,166.88 L177,167 C177,178.58 170.22,188.72 159.54,188.72 Z M159.66,185.9 C168.36,185.9 173.76,176.84 173.76,167.12 L173.76,167 C173.76,157.22 168.24,148.1 159.54,148.1 C150.84,148.1 145.44,157.1 145.44,166.88 L145.44,167 C145.44,176.72 150.96,185.9 159.66,185.9 Z" id="50" fill="#FFFFFF"></path>
                <path d="M182.46,187.84 L196.62,160.06 L198.09,160.06 L183.93,187.84 L182.46,187.84 Z M199.24747,184 L199.24747,168.7 L200.71747,168.7 L200.71747,171.43 C201.70747,169.84 203.08747,168.34 205.81747,168.34 C208.48747,168.34 210.13747,169.87 210.97747,171.64 C211.96747,169.93 213.61747,168.34 216.49747,168.34 C220.12747,168.34 222.37747,170.89 222.37747,174.73 L222.37747,184 L220.90747,184 L220.90747,174.91 C220.90747,171.61 219.19747,169.69 216.37747,169.69 C213.79747,169.69 211.54747,171.67 211.54747,175.09 L211.54747,184 L210.07747,184 L210.07747,174.82 C210.07747,171.64 208.33747,169.69 205.60747,169.69 C202.87747,169.69 200.71747,172.09 200.71747,175.18 L200.71747,184 L199.24747,184 Z M234.521295,184.36 C229.991295,184.36 226.691295,180.7 226.691295,176.41 L226.691295,176.35 C226.691295,172.06 230.021295,168.34 234.581295,168.34 C239.111295,168.34 242.411295,172 242.411295,176.29 L242.411295,176.35 C242.411295,180.64 239.081295,184.36 234.521295,184.36 Z M234.581295,182.98 C238.211295,182.98 240.821295,180.01 240.821295,176.41 L240.821295,176.35 C240.821295,172.66 238.061295,169.72 234.521295,169.72 C230.891295,169.72 228.281295,172.69 228.281295,176.29 L228.281295,176.35 C228.281295,180.04 231.041295,182.98 234.581295,182.98 Z M245.975119,184 L245.975119,181.45 L247.955119,181.45 L247.955119,184 L245.975119,184 Z" id="/mo." fill="#FFFFFF"></path>
                <path d="M95.93,114.36 C93.77,114.36 91.85,113.52 90.59,112.26 C88.85,110.52 87.92,108.42 87.92,104.07 L87.92,104.01 C87.92,97.68 91.25,92.64 96.47,92.64 C98.87,92.64 100.7,93.57 102.53,95.07 L101.54,96.27 C99.92,94.83 98.33,94.05 96.35,94.05 C92.09,94.05 89.33,98.52 89.48,104.94 C90.68,102.9 92.63,101.04 96.05,101.04 C99.86,101.04 103.28,103.65 103.28,107.4 L103.28,107.46 C103.28,111.42 100.07,114.36 95.93,114.36 Z M96.05,112.95 C99.44,112.95 101.66,110.49 101.66,107.52 L101.66,107.46 C101.66,104.58 99.29,102.42 95.96,102.42 C92.51,102.42 90.11,105.03 90.11,107.61 L90.11,107.67 C90.11,110.67 92.66,112.95 96.05,112.95 Z M113.823094,110.61 L113.823094,104.16 L107.313094,104.16 L107.313094,102.72 L113.823094,102.72 L113.823094,96.27 L115.323094,96.27 L115.323094,102.72 L121.833094,102.72 L121.833094,104.16 L115.323094,104.16 L115.323094,110.61 L113.823094,110.61 Z M141.503266,114.36 C137.633266,114.36 135.383266,111.72 135.383266,108.06 L135.383266,98.7 L136.853266,98.7 L136.853266,107.79 C136.853266,110.94 138.623266,113.01 141.713266,113.01 C144.713266,113.01 147.023266,110.73 147.023266,107.55 L147.023266,98.7 L148.493266,98.7 L148.493266,114 L147.023266,114 L147.023266,111.15 C146.003266,112.95 144.293266,114.36 141.503266,114.36 Z M159.033352,114.3 C156.813352,114.3 154.383352,113.4 152.763352,112.08 L153.633352,110.91 C155.313352,112.2 157.173352,112.92 159.123352,112.92 C161.193352,112.92 162.813352,111.78 162.813352,110.01 L162.813352,109.95 C162.813352,108.15 160.893352,107.49 158.763352,106.89 C156.273352,106.17 153.513352,105.42 153.513352,102.69 L153.513352,102.63 C153.513352,100.17 155.583352,98.4 158.553352,98.4 C160.383352,98.4 162.453352,99.06 163.983352,100.08 L163.203352,101.31 C161.793352,100.38 160.113352,99.78 158.493352,99.78 C156.393352,99.78 155.013352,100.92 155.013352,102.45 L155.013352,102.51 C155.013352,104.22 157.083352,104.85 159.273352,105.48 C161.733352,106.17 164.313352,107.07 164.313352,109.77 L164.313352,109.83 C164.313352,112.56 161.973352,114.3 159.033352,114.3 Z M175.453437,114.36 C171.433437,114.36 167.953437,111.15 167.953437,106.38 L167.953437,106.32 C167.953437,101.88 171.073437,98.34 175.213437,98.34 C179.503437,98.34 182.233437,101.82 182.233437,106.35 C182.233437,106.62 182.233437,106.71 182.203437,106.95 L169.513437,106.95 C169.783437,110.76 172.513437,112.98 175.513437,112.98 C177.883437,112.98 179.503437,111.93 180.763437,110.58 L181.783437,111.48 C180.223437,113.16 178.393437,114.36 175.453437,114.36 Z M169.513437,105.63 L180.643437,105.63 C180.433437,102.54 178.663437,99.69 175.153437,99.69 C172.123437,99.69 169.783437,102.24 169.513437,105.63 Z M186.533523,114 L186.533523,98.7 L188.003523,98.7 L188.003523,103.05 C189.203523,100.32 191.753523,98.34 194.783523,98.46 L194.783523,100.08 L194.633523,100.08 C191.093523,100.08 188.003523,102.75 188.003523,107.73 L188.003523,114 L186.533523,114 Z M203.493609,114.3 C201.273609,114.3 198.843609,113.4 197.223609,112.08 L198.093609,110.91 C199.773609,112.2 201.633609,112.92 203.583609,112.92 C205.653609,112.92 207.273609,111.78 207.273609,110.01 L207.273609,109.95 C207.273609,108.15 205.353609,107.49 203.223609,106.89 C200.733609,106.17 197.973609,105.42 197.973609,102.69 L197.973609,102.63 C197.973609,100.17 200.043609,98.4 203.013609,98.4 C204.843609,98.4 206.913609,99.06 208.443609,100.08 L207.663609,101.31 C206.253609,100.38 204.573609,99.78 202.953609,99.78 C200.853609,99.78 199.473609,100.92 199.473609,102.45 L199.473609,102.51 C199.473609,104.22 201.543609,104.85 203.733609,105.48 C206.193609,106.17 208.773609,107.07 208.773609,109.77 L208.773609,109.83 C208.773609,112.56 206.433609,114.3 203.493609,114.3 Z" id="6+-users" fill="#FFFFFF"></path>
            </g>
        </g>
    </g>
</svg>