<?xml version="1.0" encoding="UTF-8"?>
<svg width="154px" height="106px" viewBox="0 0 154 106" version="1.1" xmlns="http://www.w3.org/2000/svg" xmlns:xlink="http://www.w3.org/1999/xlink">
    <!-- Generator: Sketch 51.2 (57519) - http://www.bohemiancoding.com/sketch -->
    <title>Group 8</title>
    <desc>Created with Sketch.</desc>
    <defs></defs>
    <g id="Voiso_mobile" stroke="none" stroke-width="1" fill="none" fill-rule="evenodd">
        <g id="Voiso_mobile_Main_page" transform="translate(-111.000000, -7158.000000)">
            <g id="Group-8" transform="translate(111.000000, 7158.000000)">
                <path d="M39.42384,16.25344 C37.9032,16.25344 36.55152,15.66208 35.66448,14.77504 C34.43952,13.55008 33.7848,12.07168 33.7848,8.96704 C33.7848,4.51072 36.12912,0.96256 39.804,0.96256 C41.4936,0.96256 42.78192,1.61728 44.07024,2.67328 L43.37328,3.51808 C42.2328,2.50432 41.11344,1.9552 39.71952,1.9552 C36.80496,1.9552 34.88304,4.93312 34.88304,9.26272 L34.88304,9.62176 C35.72784,8.1856 37.10064,6.87616 39.50832,6.87616 C42.19056,6.87616 44.59824,8.7136 44.59824,11.39584 C44.59824,14.18368 42.3384,16.25344 39.42384,16.25344 Z M39.50832,15.2608 C41.89488,15.2608 43.45776,13.52896 43.45776,11.39584 C43.45776,9.36832 41.78928,7.84768 39.44496,7.84768 C37.01616,7.84768 35.32656,9.68512 35.32656,11.54368 C35.32656,13.65568 37.12176,15.2608 39.50832,15.2608 Z M52.22256,13.61344 L52.22256,9.07264 L47.63952,9.07264 L47.63952,8.05888 L52.22256,8.05888 L52.22256,3.51808 L53.27856,3.51808 L53.27856,8.05888 L57.8616,8.05888 L57.8616,9.07264 L53.27856,9.07264 L53.27856,13.61344 L52.22256,13.61344 Z M71.9064,16.25344 C69.18192,16.25344 67.59792,14.39488 67.59792,11.81824 L67.59792,5.2288 L68.6328,5.2288 L68.6328,11.62816 C68.6328,13.84576 69.87888,15.30304 72.05424,15.30304 C74.16624,15.30304 75.79248,13.69792 75.79248,11.4592 L75.79248,5.2288 L76.82736,5.2288 L76.82736,16 L75.79248,16 L75.79248,13.9936 C75.0744,15.2608 73.87056,16.25344 71.9064,16.25344 Z M84.24048,16.2112 C82.6776,16.2112 80.96688,15.5776 79.8264,14.64832 L80.43888,13.82464 C81.6216,14.7328 82.93104,15.23968 84.30384,15.23968 C85.76112,15.23968 86.9016,14.43712 86.9016,13.1488 C86.9016,11.8816 85.54992,11.41696 84.0504,10.99456 C82.29744,10.48768 80.3544,9.95968 80.3544,7.99552 C80.3544,6.26368 81.81168,5.0176 83.90256,5.0176 C85.19088,5.0176 86.64816,5.48224 87.72528,6.20032 L87.17616,7.06624 C86.18352,6.41152 85.0008,5.98912 83.86032,5.98912 C82.38192,5.98912 81.4104,6.79168 81.4104,7.91104 C81.4104,9.11488 82.86768,9.5584 84.40944,10.00192 C86.14128,10.48768 87.9576,11.12128 87.9576,13.06432 C87.9576,14.98624 86.31024,16.2112 84.24048,16.2112 Z M95.79312,16.25344 C92.96304,16.25344 90.51312,13.9936 90.51312,10.59328 C90.51312,7.46752 92.7096,4.97536 95.62416,4.97536 C98.64432,4.97536 100.56624,7.42528 100.56624,10.6144 C100.56624,10.80448 100.56624,10.86784 100.54512,11.0368 L91.61136,11.0368 C91.80144,13.71904 93.72336,15.28192 95.83536,15.28192 C97.50384,15.28192 98.64432,14.54272 99.53136,13.59232 L100.24944,14.22592 C99.1512,15.40864 97.86288,16.25344 95.79312,16.25344 Z M91.61136,10.10752 L99.44688,10.10752 C99.29904,7.93216 98.05296,5.92576 95.58192,5.92576 C93.4488,5.92576 91.80144,7.72096 91.61136,10.10752 Z M103.5864,16 L103.5864,5.2288 L104.62128,5.2288 L104.62128,8.2912 C105.46608,6.36928 107.26128,4.97536 109.3944,5.05984 L109.3944,6.20032 L109.2888,6.20032 C106.79664,6.20032 104.62128,8.08 104.62128,11.58592 L104.62128,16 L103.5864,16 Z M115.5192,16.2112 C113.95632,16.2112 112.2456,15.5776 111.10512,14.64832 L111.7176,13.82464 C112.90032,14.7328 114.20976,15.23968 115.58256,15.23968 C117.03984,15.23968 118.18032,14.43712 118.18032,13.1488 C118.18032,11.8816 116.82864,11.41696 115.32912,10.99456 C113.57616,10.48768 111.63312,9.95968 111.63312,7.99552 C111.63312,6.26368 113.0904,5.0176 115.18128,5.0176 C116.4696,5.0176 117.92688,5.48224 119.004,6.20032 L118.45488,7.06624 C117.46224,6.41152 116.27952,5.98912 115.13904,5.98912 C113.66064,5.98912 112.68912,6.79168 112.68912,7.91104 C112.68912,9.11488 114.1464,9.5584 115.68816,10.00192 C117.42,10.48768 119.23632,11.12128 119.23632,13.06432 C119.23632,14.98624 117.58896,16.2112 115.5192,16.2112 Z" id="6+-users-copy" fill="#442BC0"></path>
                <path d="M0.120816713,58 L0.120816713,41.3789062 L5.91573859,41.3789062 C7.93723307,41.3789062 9.38033387,41.7176887 10.2450843,42.3952637 C11.1098347,43.0728387 11.5422034,44.2052329 11.5422034,45.7924805 C11.5422034,47.5893645 10.9638401,48.9875438 9.80709601,49.9870605 C8.65035194,50.9865773 7.03130889,51.4863281 4.94991828,51.4863281 L3.51241828,51.4863281 L3.51241828,58 L0.120816713,58 Z M3.51241828,49.206543 L4.1862464,49.206543 C5.36919502,49.206543 6.30318633,48.9313992 6.98824835,48.3811035 C7.67331037,47.8308078 8.01583624,47.0839891 8.01583624,46.140625 C8.01583624,44.4859943 6.96392619,43.6586914 4.86007453,43.6586914 L3.51241828,43.6586914 L3.51241828,49.206543 Z M13.7603486,58 L13.7603486,45.6689453 L17.0845673,45.6689453 L17.0845673,47.9936523 C17.9455742,46.2566645 19.2557825,45.3881836 21.0152314,45.3881836 C21.2248678,45.3881836 21.4307577,45.4106443 21.6329072,45.4555664 L21.6329072,48.4204102 C21.1612251,48.2482088 20.7232412,48.1621094 20.3189423,48.1621094 C18.9937404,48.1621094 17.9156262,48.8321873 17.0845673,50.1723633 L17.0845673,58 L13.7603486,58 Z M33.7900171,57.5844727 C32.2102566,58.0486677 30.7128758,58.2807617 29.2978296,58.2807617 C27.2389001,58.2807617 25.6142418,57.6967832 24.4238062,56.5288086 C23.2333706,55.360834 22.6381617,53.7661234 22.6381617,51.7446289 C22.6381617,49.8354397 23.182834,48.2987526 24.2721949,47.1345215 C25.3615558,45.9702904 26.8009131,45.3881836 28.5903101,45.3881836 C30.3946811,45.3881836 31.7123763,45.9571883 32.5434351,47.0952148 C33.3744939,48.2332414 33.7900171,50.0338419 33.7900171,52.4970703 L26.1420679,52.4970703 C26.3666784,54.8479935 27.6581694,56.0234375 30.0165796,56.0234375 C31.1321451,56.0234375 32.389945,55.7651393 33.7900171,55.2485352 L33.7900171,57.5844727 Z M26.097146,50.621582 L30.5219507,50.621582 C30.5219507,48.5177304 29.8443859,47.4658203 28.4892359,47.4658203 C27.1116248,47.4658203 26.3142695,48.5177304 26.097146,50.621582 Z M36.7606037,58 L36.7606037,45.6689453 L39.9500568,45.6689453 L39.9500568,47.9936523 C40.923369,46.2566645 42.3084462,45.3881836 44.1053302,45.3881836 C45.0337203,45.3881836 45.7973845,45.6165342 46.3963459,46.0732422 C46.9953072,46.5299502 47.3621655,47.1700805 47.4969318,47.9936523 C48.6499324,46.2566645 50.0424965,45.3881836 51.6746662,45.3881836 C53.9282582,45.3881836 55.0550373,46.6310097 55.0550373,49.1166992 L55.0550373,58 L51.8655841,58 L51.8655841,50.2060547 C51.8655841,48.7460865 51.3789354,48.0161133 50.4056232,48.0161133 C49.40985,48.0161133 48.4402959,48.7348561 47.4969318,50.1723633 L47.4969318,58 L44.3074787,58 L44.3074787,50.2060547 C44.3074787,48.7385994 43.8170864,48.0048828 42.8362873,48.0048828 C41.8554881,48.0048828 40.8934209,48.7273691 39.9500568,50.1723633 L39.9500568,58 L36.7606037,58 Z M58.5983777,58 L58.5983777,45.6689453 L61.9225965,45.6689453 L61.9225965,58 L58.5983777,58 Z M58.5983777,43.5913086 L58.5983777,40.8173828 L61.9225965,40.8173828 L61.9225965,43.5913086 L58.5983777,43.5913086 Z M73.2374213,58 L73.2374213,55.675293 C72.1592909,57.4122808 70.7592398,58.2807617 69.037226,58.2807617 C67.9366345,58.2807617 67.0681536,57.9326207 66.4317572,57.2363281 C65.7953608,56.5400356 65.4771674,55.5891987 65.4771674,54.3837891 L65.4771674,45.6689453 L68.8013861,45.6689453 L68.8013861,53.5639648 C68.8013861,54.9640369 69.2693176,55.6640625 70.2051947,55.6640625 C71.253377,55.6640625 72.2641091,54.9191155 73.2374213,53.4291992 L73.2374213,45.6689453 L76.56164,45.6689453 L76.56164,58 L73.2374213,58 Z M80.2509766,58 L80.2509766,45.6689453 L83.4404297,45.6689453 L83.4404297,47.9936523 C84.4137418,46.2566645 85.7988191,45.3881836 87.5957031,45.3881836 C88.5240932,45.3881836 89.2877574,45.6165342 89.8867188,46.0732422 C90.4856801,46.5299502 90.8525384,47.1700805 90.9873047,47.9936523 C92.1403052,46.2566645 93.5328694,45.3881836 95.1650391,45.3881836 C97.4186311,45.3881836 98.5454102,46.6310097 98.5454102,49.1166992 L98.5454102,58 L95.355957,58 L95.355957,50.2060547 C95.355957,48.7460865 94.8693083,48.0161133 93.8959961,48.0161133 C92.9002229,48.0161133 91.9306688,48.7348561 90.9873047,50.1723633 L90.9873047,58 L87.7978516,58 L87.7978516,50.2060547 C87.7978516,48.7385994 87.3074593,48.0048828 86.3266602,48.0048828 C85.345861,48.0048828 84.3837938,48.7273691 83.4404297,50.1723633 L83.4404297,58 L80.2509766,58 Z M109.20338,58 L109.20338,41.3789062 L114.998302,41.3789062 C117.019796,41.3789062 118.462897,41.7176887 119.327648,42.3952637 C120.192398,43.0728387 120.624767,44.2052329 120.624767,45.7924805 C120.624767,47.5893645 120.046403,48.9875438 118.889659,49.9870605 C117.732915,50.9865773 116.113872,51.4863281 114.032482,51.4863281 L112.594982,51.4863281 L112.594982,58 L109.20338,58 Z M112.594982,49.206543 L113.26881,49.206543 C114.451758,49.206543 115.38575,48.9313992 116.070812,48.3811035 C116.755874,47.8308078 117.0984,47.0839891 117.0984,46.140625 C117.0984,44.4859943 116.04649,43.6586914 113.942638,43.6586914 L112.594982,43.6586914 L112.594982,49.206543 Z M122.842912,58 L122.842912,40.2670898 L126.167131,40.2670898 L126.167131,58 L122.842912,58 Z M137.481956,58 L137.481956,55.675293 C136.403825,57.4122808 135.003774,58.2807617 133.28176,58.2807617 C132.181169,58.2807617 131.312688,57.9326207 130.676291,57.2363281 C130.039895,56.5400356 129.721702,55.5891987 129.721702,54.3837891 L129.721702,45.6689453 L133.04592,45.6689453 L133.04592,53.5639648 C133.04592,54.9640369 133.513852,55.6640625 134.449729,55.6640625 C135.497911,55.6640625 136.508643,54.9191155 137.481956,53.4291992 L137.481956,45.6689453 L140.806174,45.6689453 L140.806174,58 L137.481956,58 Z M144.169827,57.6069336 L144.169827,55.1699219 C145.816971,55.8587274 147.224509,56.203125 148.392483,56.203125 C149.75512,56.203125 150.436429,55.7389369 150.436429,54.8105469 C150.436429,54.2115855 149.874911,53.6875022 148.751858,53.2382812 L147.628812,52.7890625 C146.408428,52.2949194 145.536204,51.7633492 145.012112,51.1943359 C144.488021,50.6253227 144.22598,49.9215537 144.22598,49.0830078 C144.22598,47.9150332 144.67145,47.0072461 145.562405,46.3596191 C146.45336,45.7119922 147.69993,45.3881836 149.302151,45.3881836 C150.305412,45.3881836 151.499573,45.5341782 152.884671,45.8261719 L152.884671,48.1621094 C151.551982,47.6979143 150.447664,47.4658203 149.571683,47.4658203 C148.194072,47.4658203 147.505276,47.8925739 147.505276,48.7460938 C147.505276,49.30762 148.014386,49.7830384 149.03262,50.1723633 L149.998441,50.5429688 C151.443435,51.089521 152.448552,51.6435519 153.013821,52.2050781 C153.579091,52.7666044 153.861722,53.4890906 153.861722,54.3725586 C153.861722,55.5330462 153.380688,56.4745244 152.418607,57.1970215 C151.456525,57.9195186 150.20434,58.2807617 148.662015,58.2807617 C147.179585,58.2807617 145.682205,58.0561546 144.169827,57.6069336 Z" id="Premium-Plus" fill="#000000"></path>
                <g id="Group-12-Copy" transform="translate(22.000000, 71.000000)" fill="#000000">
                    <path d="M19.49696,31 L32.92928,3.544 L15.77984,3.544 L15.77984,1.432 L35.3792,1.432 L35.3792,3.03712 L21.90464,31 L19.49696,31 Z M50.07872,31.50688 C46.40384,31.50688 43.616,29.90176 41.16608,27.832 L42.56,26.1424 C45.05216,28.38112 47.4176,29.5216 50.12096,29.5216 C55.8656,29.5216 59.92064,23.65024 59.92064,15.28672 L59.92064,14.27296 C58.23104,17.31424 55.35872,19.97536 50.71232,19.97536 C44.75648,19.97536 40.49024,16.0048 40.49024,10.85152 C40.49024,5.40256 44.71424,0.92512 50.88128,0.92512 C54.04928,0.92512 56.62592,2.15008 58.4,3.92416 C60.68096,6.20512 62.11712,9.54208 62.11712,15.54016 C62.11712,24.83296 56.96384,31.50688 50.07872,31.50688 Z M50.7968,18.03232 C55.82336,18.03232 59.0336,14.23072 59.0336,10.42912 C59.0336,6.24736 55.52768,2.9104 50.62784,2.9104 C45.77024,2.9104 42.7712,6.66976 42.7712,10.85152 C42.7712,14.99104 46.10816,18.03232 50.7968,18.03232 Z" id="79"></path>
                    <path d="M6.294848,22.9342126 L6.294848,21.0524206 C4.56512,20.9003566 3.158528,20.2350766 1.789952,19.0185646 L2.417216,18.2772526 C3.595712,19.3797166 4.793216,20.0449966 6.332864,20.1780526 L6.332864,14.7797806 C3.481664,14.1525166 2.303168,13.1070766 2.303168,11.1872686 C2.303168,9.28646857 3.975872,7.82285257 6.294848,7.76582857 L6.294848,6.66336457 L7.207232,6.66336457 L7.207232,7.80384457 C8.670848,7.91789257 9.754304,8.45011657 10.875776,9.36250057 L10.248512,10.1038126 C9.260096,9.22944457 8.27168,8.79226057 7.169216,8.65920457 L7.169216,14.0004526 C10.058432,14.6087086 11.274944,15.6921646 11.274944,17.5739566 C11.274944,19.5697966 9.60224,20.9763886 7.207232,21.0714286 L7.207232,22.9342126 L6.294848,22.9342126 Z M7.169216,20.2160686 C9.070016,20.1590446 10.305536,19.0755886 10.305536,17.6119726 C10.305536,16.3194286 9.678272,15.5401006 7.169216,14.9698606 L7.169216,20.2160686 Z M6.332864,13.8103726 L6.332864,8.62118857 C4.489088,8.65920457 3.272576,9.76166857 3.272576,11.1492526 C3.272576,12.3847726 3.861824,13.2021166 6.332864,13.8103726 Z" id="$"></path>
                    <path d="M64.147072,34.1587383 L73.118848,16.5573303 L74.05024,16.5573303 L65.078464,34.1587383 L64.147072,34.1587383 Z M75.76096,31.7257143 L75.76096,22.0316343 L76.692352,22.0316343 L76.692352,23.7613623 C77.319616,22.7539383 78.193984,21.8035383 79.923712,21.8035383 C81.615424,21.8035383 82.660864,22.7729463 83.193088,23.8944183 C83.820352,22.8109623 84.865792,21.8035383 86.69056,21.8035383 C88.990528,21.8035383 90.416128,23.4192183 90.416128,25.8522423 L90.416128,31.7257143 L89.484736,31.7257143 L89.484736,25.9662903 C89.484736,23.8754103 88.40128,22.6588983 86.614528,22.6588983 C84.97984,22.6588983 83.55424,23.9134263 83.55424,26.0803383 L83.55424,31.7257143 L82.622848,31.7257143 L82.622848,25.9092663 C82.622848,23.8944183 81.520384,22.6588983 79.790656,22.6588983 C78.060928,22.6588983 76.692352,24.1795383 76.692352,26.1373623 L76.692352,31.7257143 L75.76096,31.7257143 Z M98.133376,31.9538103 C95.263168,31.9538103 93.172288,29.6348343 93.172288,26.8786743 C93.172288,24.1605303 95.282176,21.8035383 98.171392,21.8035383 C101.0416,21.8035383 103.13248,24.1225143 103.13248,26.8786743 C103.13248,29.5968183 101.022592,31.9538103 98.133376,31.9538103 Z M98.171392,31.0794423 C100.319296,31.0794423 102.125056,29.1976503 102.125056,26.8786743 C102.125056,24.5406903 100.319296,22.6779063 98.133376,22.6779063 C95.947456,22.6779063 94.179712,24.5596983 94.179712,26.8786743 C94.179712,29.2166583 95.928448,31.0794423 98.171392,31.0794423 Z M105.7936,31.7257143 L105.7936,30.1100343 L107.048128,30.1100343 L107.048128,31.7257143 L105.7936,31.7257143 Z" id="/mo."></path>
                </g>
            </g>
        </g>
    </g>
</svg>