<svg viewBox="-10 -10 117.54 38.012" version="1.1" xmlns="http://www.w3.org/2000/svg" xmlns:xlink="http://www.w3.org/1999/xlink">
  <defs>
    <filter id="strokeGlow" y="-10" x="-10" width="250" height="150">
      <feGaussianBlur in="SourceAlpha" stdDeviation="2.5" result="blur1"></feGaussianBlur>
      <feMerge>
        <feMergeNode in="blur1"></feMergeNode>
        <feMergeNode in="SourceGraphic"></feMergeNode>
      </feMerge>
    </filter>
  </defs>
  <g filter="url(#strokeGlow)">
    <path
      class="svg-white"
      fill="#fff"
      d="M3.51,11.416v6.34H0V.266H7a6.889,6.889,0,0,1,4.75,1.54,5.16,5.16,0,0,1,1.73,4,5.119,5.119,0,0,1-1.73,4A6.93,6.93,0,0,1,7,11.416Zm0-2.7H7a2.921,2.921,0,0,0,2.22-.8,2.842,2.842,0,0,0,.76-2,3,3,0,0,0-.78-2.13A2.867,2.867,0,0,0,7,2.966H3.51v5.75Zm15.78,2.05v7H15.78V.266h6.6a7.244,7.244,0,0,1,4.68,1.39,4.619,4.619,0,0,1,1.69,3.8,3.845,3.845,0,0,1-.75,2.3,5,5,0,0,1-2,1.58,3.769,3.769,0,0,1,2.23,1.53,4.84,4.84,0,0,1,.68,2.64V14.8a6.321,6.321,0,0,0,.2,1.53,2.11,2.11,0,0,0,.68,1.18v.25H26.13a2,2,0,0,1-.62-1.29,10.768,10.768,0,0,1-.14-1.71v-1.23a2.78,2.78,0,0,0-.71-2,2.7,2.7,0,0,0-2-.73H19.29Zm0-2.7h3a3.311,3.311,0,0,0,2.2-.62,2.311,2.311,0,0,0,.73-1.85,2.55,2.55,0,0,0-.7-1.94,3,3,0,0,0-2.14-.71H19.29v5.12Zm26.59,2.52a7.34,7.34,0,0,1-2,5.32,7,7,0,0,1-5.29,2.1,7,7,0,0,1-5.25-2.1,7.382,7.382,0,0,1-2-5.32V7.436a7.392,7.392,0,0,1,2-5.32,6.919,6.919,0,0,1,5.2-2.11,7,7,0,0,1,5.3,2.11,7.33,7.33,0,0,1,2,5.32v3.15Zm-3.51-3.17a5.307,5.307,0,0,0-1-3.36,3.369,3.369,0,0,0-2.81-1.31,3.27,3.27,0,0,0-2.8,1.31,5.436,5.436,0,0,0-1,3.36V10.6a5.461,5.461,0,0,0,1,3.4,3.292,3.292,0,0,0,2.78,1.31A3.349,3.349,0,0,0,41.35,14a5.408,5.408,0,0,0,1-3.4V7.416Zm17.96,3.07H53v7.27H49.49V.266H61.56v2.7H53v4.82h7.33Zm21.87,7.27H78.7V.266h3.5ZM97.54,2.966h-5v14.79H89.08V2.966H84.16V.266H97.54Z"/>
    <path fill="#3abdd9" class="svg-scooter" d="M68.31,10.486h3.51v7.27H68.31ZM63.38.256v2.71h4.93v4.82h3.51V2.966h4.95V.256Z"/>
  </g>
</svg>
