<svg xmlns="http://www.w3.org/2000/svg" viewBox="0 0 459.19 51.26"><defs><style>.cls-1{fill:#cfcdcc;}.cls-2{fill:#31312f;}.cls-3{fill:#ff1011;}</style></defs><title>logo_1</title><g id="Слой_2" data-name="Слой 2"><g id="Слой_1-2" data-name="Слой 1"><path class="cls-1" d="M459.19,42.77c-.29.35-.56.71-.86,1a2.2,2.2,0,0,1-3.15.3,2.54,2.54,0,0,1-.28-3.53,2.34,2.34,0,0,1,2.45-.7c.77.17,1.64.51,1.56,1.63,0,0,.19.11.29.16Zm-1.47.73c1-.37.89-1.32.65-2a2,2,0,0,0-1.58-1.33,1.3,1.3,0,0,0-.85.16,2.18,2.18,0,0,0-1.11,1.93A2.09,2.09,0,0,0,456.16,44c.81.34,1.23.2,1.57-.53Z"/><path class="cls-1" d="M396.43,27.34q0-7.7,0-15.41c0-.43,0-.86,0-1.28s.15-.56.53-.54h.55c4.65,0,9.29,0,13.94,0a1.33,1.33,0,0,1,1.38.8c.6,1.09,1.32,2.11,1.93,3.19,1.73,3,3.43,6.07,5.14,9.11,1.48,2.62,3,5.24,4.41,7.88.22.39.37.21.47,0,.49-.81.93-1.64,1.42-2.45,1.66-2.8,3.35-5.58,5-8.39,1.1-1.89,2.12-3.82,3.2-5.72.79-1.39,1.61-2.76,2.42-4.13a.73.73,0,0,1,.39-.28,2,2,0,0,1,.55,0h13.76c1.11,0,1.07-.06,1.07,1.11q0,16.14,0,32.28a3.31,3.31,0,0,0,0,.37c.06.53-.13.76-.71.75-2.93,0-5.87,0-8.8,0-.72,0-.82-.3-.78-.87,0-.36,0-.73,0-1.1q0-10.46,0-20.91c0-.41-.08-.83-.12-1.24-.2.32-.41.63-.6.95-1.44,2.38-2.89,4.75-4.31,7.14-.67,1.12-1.27,2.27-1.92,3.4-1.15,2-2.31,4-3.46,6s-2.3,4-3.41,6c-.22.41-.38.65-.9.64-1.89,0-3.79,0-5.69,0a1.24,1.24,0,0,1-1.27-.76c-.75-1.41-1.64-2.74-2.43-4.13-1.09-1.9-2.12-3.82-3.2-5.72-1.28-2.26-2.6-4.5-3.89-6.76-1.18-2.05-2.34-4.11-3.52-6.16-.07-.11-.26-.15-.4-.22a1.34,1.34,0,0,0-.1.33c0,.49,0,1,0,1.47q0,10.46,0,20.91c0,1,0,1-1,1h-8.62c-1.09,0-1.06.07-1.06-1.13Q396.44,35.41,396.43,27.34Z"/><path class="cls-2" d="M192.57,24.41h11c.87,0,.89,0,.89.92,0,4.1.09,8.2,0,12.29a6.39,6.39,0,0,1-3.65,5.52,18,18,0,0,1-4.52,1.47c-1.6.4-3.27.13-4.84.42-2.67.48-5.32.23-8,.29s-5.39.13-8.07,0c-1.86-.11-3.74-.15-5.58-.39a12.14,12.14,0,0,1-6.56-2.84,9.87,9.87,0,0,1-2.8-4.89,12.41,12.41,0,0,1-.42-3.56c.06-4.22.07-8.44,0-12.66a12.94,12.94,0,0,1,1.86-6.79,7.71,7.71,0,0,1,4-3.28,25.37,25.37,0,0,1,5.7-1.24c3.4-.47,6.79-.21,10.18-.28s6.86-.15,10.27,0a24.58,24.58,0,0,1,6.84,1,7.7,7.7,0,0,1,4.88,5.33c.66,2.06.33,4.2.38,6.31,0,.4-.23.5-.58.5h-9.91c-.38,0-.59-.2-.51-.56a2.57,2.57,0,0,0-1.35-2.76,4.43,4.43,0,0,0-2.52-.7c-4.4,0-8.81-.09-13.21,0a5.15,5.15,0,0,0-3.46,1.18,5.06,5.06,0,0,0-1.45,3.72,53.74,53.74,0,0,0,0,7.7c.26,2.79,1.32,3.94,4.15,4.6,3,.7,6,.22,9.07.35,1.1,0,2.2,0,3.3,0a12.64,12.64,0,0,0,3.82-.75,2.13,2.13,0,0,0,1.62-2.1c0-1.83.22-1.53-1.55-1.54q-5,0-10.09,0c-.61,0-.87-.13-.85-.81,0-1.9,0-3.79,0-5.69,0-.84,0-.86.95-.86Z"/><path class="cls-2" d="M87.89,9.36c3.49,0,7-.07,10.46,0a17,17,0,0,1,4.37.73,6.93,6.93,0,0,1,5.23,5.92c0,.23.17.45.18.68.06,1.26.1,2.53.14,3.8-1,.08-2,.2-3,.21-2.26,0-4.53,0-6.79,0-.46,0-.73,0-.82-.66-.3-1.91-1.23-2.65-3.18-2.65q-6.88,0-13.76,0a4.9,4.9,0,0,0-1.41.21c-1.73.53-2.33,1.61-1.72,3.27a2.93,2.93,0,0,0,2.34,1.64,1.91,1.91,0,0,0,.37,0c3.15.12,6.29.29,9.44.35s6.36,0,9.54,0a15.1,15.1,0,0,1,6.34,1.51A6.93,6.93,0,0,1,109,29.06a8.58,8.58,0,0,1,.42,3,7.18,7.18,0,0,0,.32,1.36,30.47,30.47,0,0,1-.71,5.66c-.87,3.09-3.11,4.67-6,5.51a19.7,19.7,0,0,1-3.56.4c-6.08.61-12.16.21-18.25.33A17.93,17.93,0,0,1,77.46,45c-1.23-.23-2.48,0-3.76-.32-1-.28-2.05-.4-3.09-.74a6.23,6.23,0,0,1-4.1-4.34c-.67-2-.45-4.19-.4-6.3a.63.63,0,0,1,.42-.43,5.78,5.78,0,0,1,1.1,0h7.89c1.53,0,1.61,0,1.56,1.52a2.22,2.22,0,0,0,1.44,2.11,4.65,4.65,0,0,0,2.07.39c5,0,10,.05,15,0a2.73,2.73,0,0,0,2.6-4,1.38,1.38,0,0,0-.93-1,12.94,12.94,0,0,0-1.49-.52,41.75,41.75,0,0,0-4.3-.38c-2.75-.06-5.51,0-8.26,0-3.15-.07-6.3-.14-9.43-.39a10.29,10.29,0,0,1-4.67-1.54,6,6,0,0,1-2.61-4.15c-.38-2.45-.93-5-.16-7.49.23-.76.14-1.65.42-2.45a7.35,7.35,0,0,1,5.51-4.88,24.79,24.79,0,0,1,6.39-.76C81.77,9.39,84.83,9.36,87.89,9.36Z"/><path class="cls-2" d="M256.2,27.12q0-8,0-16c0-1.61-.13-1.42,1.31-1.42,9.42,0,18.84-.07,28.25,0a20.14,20.14,0,0,1,8,1.48,6.91,6.91,0,0,1,3.91,4.48,19.46,19.46,0,0,1,.73,4.18,21,21,0,0,1-.29,5.4,8.64,8.64,0,0,1-1.74,3.82,5.55,5.55,0,0,1-2.22,1.45c-.72.29-.32.53-.05.63a7.12,7.12,0,0,1,2.6,1.89A4.73,4.73,0,0,1,298,36.34c.09,2.5,0,5,0,7.52,0,.53-.14.76-.71.76-3.18,0-6.36,0-9.54,0-.71,0-.8-.29-.79-.88,0-1.65,0-3.3,0-5s-.75-2.43-2.46-2.65c-5.46-.71-10.94-.16-16.41-.33-.93,0-.95,0-.95,1,0,2.26,0,4.53,0,6.79,0,1,0,1-1,1h-9c-.81,0-1,.17-1-1C256.22,38.12,256.2,32.62,256.2,27.12Zm20.2-8.2h-8.25c-.91,0-.93,0-.93.87q0,3.11,0,6.23c0,.94,0,1,1,1h15.39a3.4,3.4,0,0,0,.73,0c1.21-.27,2.46-.76,2.59-2.09s.67-2.3.15-3.66c-.67-1.73-1-2.3-2.83-2.31C281.66,18.9,279,18.91,276.41,18.91Z"/><path class="cls-1" d="M350.18,27.21q0-8,0-16c0-1.29,0-1.16,1.21-1.16,10.33,0,20.66,0,31,0a13.45,13.45,0,0,1,6.4,1.83c1.61.89,2.31,2.54,2.87,4.19a12.29,12.29,0,0,1,.72,3.26,17.36,17.36,0,0,1-.68,6.93c-.75,2.05-1.82,3.74-4.1,4.32-.09,0-.16.12-.25.19.08.1.13.22.23.28a17.73,17.73,0,0,0,1.72.93A3.7,3.7,0,0,1,391,33.79a7.27,7.27,0,0,1,1,3.91c0,2,0,4,0,6.05,0,.58-.06.88-.78.87-3.06,0-6.11,0-9.17,0-.57,0-.72-.21-.72-.75,0-1.47,0-2.94,0-4.4a5.07,5.07,0,0,0-.64-2.38,1.35,1.35,0,0,0-.9-.75,8,8,0,0,0-2.4-.52c-5.26,0-10.51,0-15.77,0-.84,0-.85,0-.86.95,0,2.38,0,4.77,0,7.15,0,.57-.21.72-.75.72q-4.58,0-9.17,0c-.53,0-.79-.14-.75-.71s0-.86,0-1.28Q350.18,34.91,350.18,27.21ZM370.06,27h8.41a2.5,2.5,0,0,0,2.4-1.48c.79-1.44.55-3,.44-4.42a2.67,2.67,0,0,0-1.75-2.14,7.19,7.19,0,0,0-2.44-.39c-5.18,0-10.37,0-15.55,0-.73,0-.77.33-.76.89,0,2.26,0,4.51,0,6.77,0,.66.21.82.83.82C364.45,27,367.25,27,370.06,27Z"/><path class="cls-1" d="M324.85,45c-3.55,0-7.1.05-10.64,0a15.56,15.56,0,0,1-6.66-1.63,8.57,8.57,0,0,1-4.27-4.82,17,17,0,0,1-.88-3.59c-.58-3.95-.26-7.89-.25-11.83a21.12,21.12,0,0,1,1-6.46,8.45,8.45,0,0,1,5.79-5.8A31.52,31.52,0,0,1,315,9.67c5.11-.6,10.21-.18,15.31-.28a42.57,42.57,0,0,1,7.4.4c2.3.36,4.71.87,6.31,2.86a8.4,8.4,0,0,1,2.06,5c0,1.2.52,2.33.39,3.56s-.2,1.36-1.4,1.36c-2.94,0-5.87,0-8.81,0-.63,0-.81-.17-.85-.82-.12-1.93-1.5-3-3.36-3.27a75.46,75.46,0,0,0-10.17-.31c-.94,0-1.88.26-2.83.33a10.25,10.25,0,0,0-2.83.35,4,4,0,0,0-2.87,3.46,40.35,40.35,0,0,0-.23,8.34c0,1.53.3,3.22,1.82,4.29a4.61,4.61,0,0,0,1.92.85c4.05.73,8.13.12,12.19.36a23.19,23.19,0,0,0,4.11-.41c1.24-.14,2.51-1.8,2.65-3.25,0-.18,0-.37,0-.55,0-.93,0-.94,1-.94h8.81c.83,0,1.12.27,1.15,1a19.51,19.51,0,0,1-1,7.22,7.22,7.22,0,0,1-4.66,4.55A18.35,18.35,0,0,1,334.76,45C331.46,44.93,328.15,45,324.85,45Z"/><path class="cls-2" d="M249,44.61h-5.13a.87.87,0,0,1-.95-.57c-.74-1.48-1.66-2.87-2.47-4.31a1.34,1.34,0,0,0-1.37-.64c-4.34,0-8.68,0-13,0-1.89,0-3.79,0-5.68,0a1.89,1.89,0,0,0-2,1.22c-.63,1.27-1.45,2.44-2.17,3.67a1.21,1.21,0,0,1-1.18.66c-3.42,0-6.85,0-10.27,0-.68,0-.79-.16-.49-.72,1.22-2.23,2.48-4.45,3.71-6.68.86-1.56,1.68-3.13,2.52-4.7q2.66-4.93,5.33-9.85c1.44-2.65,2.9-5.3,4.35-8,.74-1.35,1.54-2.68,2.19-4.07a1.29,1.29,0,0,1,1.34-.92q6.14,0,12.29,0c.53,0,.69.25.9.65q1.58,3.09,3.22,6.14c1.93,3.6,3.89,7.2,5.83,10.8,1.66,3.08,3.3,6.16,5,9.23,1.27,2.34,2.56,4.67,3.85,7,.53,1,.49,1.06-.64,1.07C252.4,44.62,250.69,44.61,249,44.61ZM229.5,30.28h4.94c1.41,0,1.44,0,.83-1.2-1-1.83-1.95-3.65-2.93-5.47-.76-1.4-1.51-2.81-2.28-4.2-.27-.49-.64-.5-.9,0-1,1.93-2,3.87-3.05,5.8-.78,1.46-1.59,2.9-2.37,4.36-.3.57-.2.72.46.73C226,30.29,227.74,30.28,229.5,30.28Z"/><path class="cls-2" d="M113.06,23.42q0-6.33,0-12.65c0-1,0-1,1-1h8.8c.87,0,.88,0,.9.91,0,.37,0,.73,0,1.1,0,5.75,0,11.49,0,17.24a23.5,23.5,0,0,0,.42,4.11,3.26,3.26,0,0,0,2.82,2.64,14.33,14.33,0,0,0,3.37.45c3.05-.1,6.11,0,9.17,0a14.11,14.11,0,0,0,3-.38A4.41,4.41,0,0,0,145.36,32c0-.49,0-1,0-1.47q0-9.9,0-19.8c0-.86-.12-1,1-1,3,0,6,0,9,0,1,0,1,0,1,1,0,8.25.07,16.5,0,24.76A9,9,0,0,1,153,42.65a9.4,9.4,0,0,1-2.34,1.21A23.9,23.9,0,0,1,144.55,45c-4.5.55-9,.19-13.47.27a49.94,49.94,0,0,1-7.4-.39,21.45,21.45,0,0,1-4.83-1,8.22,8.22,0,0,1-5.46-6.08,11.76,11.76,0,0,1-.32-2.84Q113,29.2,113.06,23.42Z"/><path class="cls-2" d="M0,26.85q0-6.51,0-13c0-.37,0-.73,0-1.1a1.31,1.31,0,0,1,1.91-1.29c2.59,1,5.16,2,7.74,3,3.56,1.38,7.15,2.7,10.66,4.21.89.38,2,.51,2.66,1.39a3.5,3.5,0,0,1,.92,2.26q0,13.75,0,27.5c0,1.29-.19,1.4-1.47,1.48a5.54,5.54,0,0,1-2.43-.5C16,49.14,12,47.48,8.05,45.87,6,45.05,4,44.29,2,43.5a3,3,0,0,1-2-2.9Q0,33.72,0,26.85Z"/><path class="cls-1" d="M49.57,26.89c0,4.46,0,8.93,0,13.39a3,3,0,0,1-2,3.1c-2.28.93-4.59,1.79-6.88,2.7S36,48,33.58,49c-1.74.69-3.5,1.37-5.26,2-1.61.59-2.33.28-2.58-1.76a27.08,27.08,0,0,1,0-3.3c0-7.58,0-15.17,0-22.75a4.11,4.11,0,0,1,1.72-3.56,9.2,9.2,0,0,1,2.22-1.06c4-1.47,8-3,12-4.67,1.89-.81,3.8-1.57,5.71-2.31,1.46-.56,2.24,0,2.26,1.55,0,.67,0,1.35,0,2Z"/><path class="cls-3" d="M25,0c1.42-.24,2.62.5,3.81,1,3.41,1.3,6.74,2.78,10.13,4.13,2.4,1,4.83,1.85,7.24,2.77a4.88,4.88,0,0,1,1,.41.82.82,0,0,1,0,1.42,26,26,0,0,1-3,1.46c-2.12.86-4.27,1.65-6.41,2.47-3.29,1.27-6.61,2.44-9.84,3.85a9.11,9.11,0,0,1-3.47.7,8.4,8.4,0,0,1-3.24-.83c-3.41-1.27-6.75-2.77-10.13-4.12-2.45-1-5-1.83-7.41-2.82-.55-.22-1.36-.32-1.43-1.18S3,8.2,3.51,8C5.67,7,7.86,6.18,10.05,5.33c2.57-1,5.16-2,7.73-3C19.2,1.8,20.57,1.08,22,.59A19.32,19.32,0,0,1,25,0Z"/><path class="cls-1" d="M457.73,43.5c-.56.13-.69-.28-.87-.66-.07-.15-.26-.24-.4-.36-.07.2-.13.4-.2.6s-.09.21-.13.32c-.08-.12-.21-.23-.22-.36a8.19,8.19,0,0,1,0-1.28c0-.28.11-.76.23-.78.45-.08,1-.23,1.34.25a1,1,0,0,1,.17.27c-.76.7.19,1.33.08,2Zm-1.09-2.28a2.92,2.92,0,0,0-.35.47c0,.06.08.19.12.29.16-.15.33-.31.49-.47C456.9,41.5,456.78,41.38,456.64,41.22Z"/></g></g></svg>